<svg xmlns="http://www.w3.org/2000/svg" xmlns:xlink="http://www.w3.org/1999/xlink" version="1.1" data-diagram-type="DESCRIPTION" style="width:1489px;height:1734px;background:#FFFFFF;" width="1489px" height="1734px" viewBox="0 0 1489 1734" zoomAndPan="magnify" preserveAspectRatio="none" contentStyleType="text/css"><?plantuml 1.2026.8?><defs/><g font-family="sans-serif" lengthAdjust="spacing"><g class="title" data-source-line="1"><text x="564.754" y="22.995" fill="#000" font-size="14" textLength="352.728" font-weight="700">What is actually wired, and where the gap is</text></g><!--entity Entry--><g class="entity" data-qualified-name="Entry" id="ent0001" data-source-line="6"><rect x="55.01" y="470.507" width="289.719" height="52.594" fill="#E8F4EA" style="stroke:#181818;stroke-width:0.5;" rx="2.5" ry="2.5"/><text x="65.01" y="493.502" fill="#000" font-size="14" textLength="127.805">lib.rs::field_names</text><text x="65.01" y="509.799" fill="#000" font-size="14" textLength="269.719" font-family="monospace">#[proc_macro_derive(FieldNames)]</text></g><!--entity S--><g class="entity" data-qualified-name="S" id="ent0002" data-source-line="8"><rect x="480.75" y="813.807" width="166.228" height="52.594" fill="#E8F4EA" style="stroke:#181818;stroke-width:0.5;" rx="2.5" ry="2.5"/><text x="490.75" y="836.802" fill="#000" font-size="14" textLength="113.661">StructExtraction</text><text x="490.75" y="853.099" fill="#000" font-size="14" textLength="146.228">&lt;&amp;'ast DeriveInput></text></g><!--entity F--><g class="entity" data-qualified-name="F" id="ent0003" data-source-line="9"><rect x="199.47" y="1157.117" width="124.802" height="52.594" fill="#E8F4EA" style="stroke:#181818;stroke-width:0.5;" rx="2.5" ry="2.5"/><text x="209.47" y="1180.112" fill="#000" font-size="14" textLength="104.802">FieldExtraction</text><text x="209.47" y="1196.409" fill="#000" font-size="14" textLength="97.371">&lt;&amp;'ast Field></text></g><!--entity Y--><g class="entity" data-qualified-name="Y" id="ent0004" data-source-line="10"><rect x="1085.24" y="470.507" width="235.264" height="52.594" fill="#FFF4E5" style="stroke:#181818;stroke-width:0.5;" rx="2.5" ry="2.5"/><text x="1095.24" y="493.502" fill="#000" font-size="14" textLength="215.264">SyntaxFieldAttributeExtraction</text><text x="1095.24" y="509.799" fill="#000" font-size="14" textLength="126.103">&lt;&amp;'ast Attribute></text></g><!--entity V--><g class="entity" data-qualified-name="V" id="ent0005" data-source-line="12"><rect x="1262.51" y="797.517" width="212.726" height="85.188" fill="#FFF4E5" style="stroke:#181818;stroke-width:0.5;" rx="2.5" ry="2.5"/><text x="1272.51" y="820.512" fill="#000" font-size="14" textLength="80.623">vocab suite</text><text x="1272.51" y="836.809" fill="#000" font-size="14" textLength="162.976">flag! name_value! leaf!</text><text x="1272.51" y="853.106" fill="#000" font-size="14" textLength="136.302">meta_list! variants!</text><text x="1272.51" y="869.403" fill="#000" font-size="14" textLength="192.726">names! vocabulary! + walk</text></g><!--entity P--><g class="entity" data-qualified-name="P" id="ent0006" data-source-line="14"><rect x="996.52" y="1148.967" width="272.697" height="68.891" fill="#E8F4EA" style="stroke:#181818;stroke-width:0.5;" rx="2.5" ry="2.5"/><text x="1006.52" y="1171.962" fill="#000" font-size="14" textLength="67.983">Processor</text><text x="1006.52" y="1188.259" fill="#000" font-size="14" textLength="252.697">StructExtraction -> ProcessedStruct</text><text x="1006.52" y="1204.556" fill="#000" font-size="14" textLength="239.429">FieldExtraction  -> ProcessedField</text></g><!--entity G--><g class="entity" data-qualified-name="G" id="ent0007" data-source-line="15"><rect x="767.37" y="1356.207" width="268.999" height="68.891" fill="#E8F4EA" style="stroke:#181818;stroke-width:0.5;" rx="2.5" ry="2.5"/><text x="777.37" y="1379.202" fill="#000" font-size="14" textLength="71.094">Generator</text><text x="777.37" y="1395.499" fill="#000" font-size="14" textLength="248.999">ProcessedStruct -> impl { FIELDS }</text><text x="777.37" y="1411.796" fill="#000" font-size="14" textLength="248.644">stub() REQUIRED + emit() provided</text></g><!--entity R--><g class="entity" data-qualified-name="R" id="ent0008" data-source-line="17"><rect x="495.7" y="1148.967" width="152.337" height="68.891" fill="#E8F4EA" style="stroke:#181818;stroke-width:0.5;" rx="2.5" ry="2.5"/><text x="505.7" y="1171.962" fill="#000" font-size="14" textLength="132.337">Diagnose::render()</text><text x="505.7" y="1188.259" fill="#000" font-size="14" textLength="128.044">walk over the tree</text><text x="505.7" y="1204.556" fill="#000" font-size="14" textLength="117.913">Vec&lt;syn::Error></text></g><!--entity DE--><g class="entity" data-qualified-name="DE" id="ent0009" data-source-line="19"><rect x="432.51" y="462.357" width="230.718" height="68.891" fill="#E8F4EA" style="stroke:#181818;stroke-width:0.5;" rx="2.5" ry="2.5"/><text x="442.51" y="485.352" fill="#000" font-size="14" textLength="168.574" font-family="monospace">#[derive(Extractor)]</text><text x="442.51" y="501.649" fill="#000" font-size="14" textLength="210.718" font-family="monospace">#[source] #[from] #[with]</text><text x="442.51" y="517.946" fill="#000" font-size="14" textLength="81.662">+ Diagnose</text></g><!--entity DP--><g class="entity" data-qualified-name="DP" id="ent0010" data-source-line="20"><rect x="1038.58" y="813.807" width="188.574" height="52.594" fill="#E8F4EA" style="stroke:#181818;stroke-width:0.5;" rx="2.5" ry="2.5"/><text x="1048.58" y="836.802" fill="#000" font-size="14" textLength="168.574" font-family="monospace">#[derive(Processor)]</text><text x="1048.58" y="853.099" fill="#000" font-size="14" textLength="53.416">identity</text></g><!--entity DV--><g class="entity" data-qualified-name="DV" id="ent0011" data-source-line="21"><rect x="697.8" y="470.507" width="180.146" height="52.594" fill="#E8F4EA" style="stroke:#181818;stroke-width:0.5;" rx="2.5" ry="2.5"/><text x="707.8" y="493.502" fill="#000" font-size="14" textLength="160.146" font-family="monospace">#[derive(Validate)]</text><text x="707.8" y="509.799" fill="#000" font-size="14" textLength="92.422">pass-through</text></g><g class="entity" data-qualified-name="GMN23" id="ent0024" data-source-line="39"><path d="M6.12,1294.857 L6.12,1486.451 A0,0 0 0 0 6.12,1486.451 L375.625,1486.451 A0,0 0 0 0 375.625,1486.451 L375.625,1304.857 L365.625,1294.857 L227.7,1294.857 L253.02,1209.987 L219.7,1294.857 L6.12,1294.857 A0,0 0 0 0 6.12,1294.857" style="stroke:#181818;stroke-width:0.5;" fill="#FEFFDD"/><path d="M365.625,1294.857 L365.625,1304.857 L375.625,1304.857 L365.625,1294.857" style="stroke:#181818;stroke-width:0.5;" fill="#FEFFDD"/><text x="12.12" y="1311.924" fill="#000" font-size="13" textLength="77.346" font-weight="700">Now wired</text><text x="89.466" y="1311.924" fill="#000" font-size="13" textLength="197.374">, on two counts: the processor</text><text x="12.12" y="1327.057" fill="#000" font-size="13" textLength="263.472">narrows it to ProcessedField, and render</text><text x="12.12" y="1342.189" fill="#000" font-size="13" textLength="253.31">walks it for reasons. It was amber here</text><text x="12.12" y="1357.322" fill="#000" font-size="13" textLength="187.478">while neither reader existed.</text><text x="12.12" y="1372.455" fill="#000" font-size="13"> </text><text x="12.12" y="1387.588" fill="#000" font-size="13" textLength="24.515">Has</text><text x="40.767" y="1387.588" fill="#000" font-size="13" textLength="92.809" font-weight="700">no fields left</text><text x="133.576" y="1387.588" fill="#000" font-size="13" textLength="116.651">. Its children were</text><text x="12.12" y="1402.721" fill="#000" font-size="13" textLength="344.373" font-family="monospace">Vec&lt;Extracted&lt;TransformationExtraction, ..>></text><text x="356.493" y="1402.721" fill="#000" font-size="13">,</text><text x="12.12" y="1417.853" fill="#000" font-size="13" textLength="269.001">and that type is deleted — it was never a</text><text x="12.12" y="1432.986" fill="#000" font-size="13" textLength="265.396">node, it held the author's transformation</text><text x="12.12" y="1448.119" fill="#000" font-size="13" textLength="131.289">expression, which is</text><text x="147.541" y="1448.119" fill="#000" font-size="13" textLength="54.787" font-family="monospace">#[from]</text><text x="202.328" y="1448.119" fill="#000" font-size="13">.</text><text x="12.12" y="1463.252" fill="#000" font-size="13"> </text><text x="12.12" y="1478.385" fill="#000" font-size="13" textLength="253.443">Refilled by the derive (#field/children).</text></g><g class="entity" data-qualified-name="GMN26" id="ent0027" data-source-line="54"><path d="M686.14,797.277 L686.14,882.941 L1003.601,882.941 L1003.601,807.277 L993.601,797.277 L686.14,797.277" style="stroke:#181818;stroke-width:0.5;" fill="#FEFFDD"/><path d="M993.601,797.277 L993.601,807.277 L1003.601,807.277 L993.601,797.277" style="stroke:#181818;stroke-width:1;" fill="#FEFFDD"/><text x="692.14" y="814.344" fill="#000" font-size="13" textLength="263.383">Works and is tested, but driven ONLY by</text><text x="692.14" y="829.477" fill="#000" font-size="13" textLength="296.461">base/syntax/worked.rs — never by the macro</text><text x="692.14" y="844.609" fill="#000" font-size="13" textLength="234.66">path. The module carries an explicit</text><text x="692.14" y="859.742" fill="#000" font-size="13" textLength="156.533" font-family="monospace">#![allow(dead_code)]</text><text x="852.806" y="859.742" fill="#000" font-size="13" textLength="65.527">saying so.</text><text x="692.14" y="874.875" fill="#000" font-size="13" textLength="135.999">(#syntax/not-driven)</text></g><g class="entity" data-qualified-name="GMN29" id="ent0030" data-source-line="62"><path d="M1071.33,1317.557 L1071.33,1463.752 A0,0 0 0 0 1071.33,1463.752 L1400.407,1463.752 A0,0 0 0 0 1400.407,1463.752 L1400.407,1327.557 L1390.407,1317.557 L1203.6,1317.557 L1149.88,1218.307 L1195.6,1317.557 L1071.33,1317.557 A0,0 0 0 0 1071.33,1317.557" style="stroke:#181818;stroke-width:0.5;" fill="#FEFFDD"/><path d="M1390.407,1317.557 L1390.407,1327.557 L1400.407,1327.557 L1390.407,1317.557" style="stroke:#181818;stroke-width:0.5;" fill="#FEFFDD"/><text x="1077.33" y="1334.624" fill="#000" font-size="13" textLength="48.268" font-weight="700">Wired.</text><text x="1129.73" y="1334.624" fill="#000" font-size="13" textLength="153.582">Concrete impls for both</text><text x="1077.33" y="1349.757" fill="#000" font-size="13" textLength="196.987">extractions, driven from lib.rs.</text><text x="1077.33" y="1364.889" fill="#000" font-size="13"> </text><text x="1077.33" y="1380.022" fill="#000" font-size="13" textLength="277.659">Sharpest demonstration of why the source</text><text x="1077.33" y="1395.155" fill="#000" font-size="13" textLength="290.704">rides on the OUTPUT: FieldExtraction's value</text><text x="1077.33" y="1410.288" fill="#000" font-size="13" textLength="308.077">carries NOTHING, so everything ProcessedField</text><text x="1077.33" y="1425.421" fill="#000" font-size="13" textLength="122.465">knows comes from</text><text x="1203.928" y="1425.421" fill="#000" font-size="13" textLength="109.573" font-family="monospace">input.source()</text><text x="1313.501" y="1425.421" fill="#000" font-size="13" textLength="58.214">. Unwrap</text><text x="1077.33" y="1440.553" fill="#000" font-size="13" textLength="256.071">between stages and there is nothing to</text><text x="1077.33" y="1455.686" fill="#000" font-size="13" textLength="260.895">process. (#processor/needs-the-source)</text></g><g class="entity" data-qualified-name="GMN32" id="ent0033" data-source-line="74"><path d="M735.92,1547.447 L735.92,1648.244 A0,0 0 0 0 735.92,1648.244 L1067.816,1648.244 A0,0 0 0 0 1067.816,1648.244 L1067.816,1557.447 L1057.816,1547.447 L905.87,1547.447 L901.87,1425.537 L897.87,1547.447 L735.92,1547.447 A0,0 0 0 0 735.92,1547.447" style="stroke:#181818;stroke-width:0.5;" fill="#FEFFDD"/><path d="M1057.816,1547.447 L1057.816,1557.447 L1067.816,1557.447 L1057.816,1547.447" style="stroke:#181818;stroke-width:0.5;" fill="#FEFFDD"/><text x="741.92" y="1564.514" fill="#000" font-size="13" textLength="48.268" font-weight="700">Wired.</text><text x="794.32" y="1564.514" fill="#000" font-size="13" textLength="213.415">An enum fails extraction and the</text><text x="741.92" y="1579.647" fill="#000" font-size="13" textLength="310.896">impl is STILL emitted — same associated items,</text><text x="741.92" y="1594.779" fill="#000" font-size="13" textLength="308.433">vacant. Not an empty stream: that would leave</text><text x="741.92" y="1609.912" fill="#000" font-size="13" textLength="289.187">every use site reporting "no associated item</text><text x="741.92" y="1625.045" fill="#000" font-size="13" textLength="257.455">named FIELDS" on top of the real error.</text><text x="741.92" y="1640.178" fill="#000" font-size="13" textLength="205.423">(#generator/stub-is-not-empty)</text></g><g class="entity" data-qualified-name="Gap" id="ent0035" data-source-line="88"><path d="M111.09,623.247 L111.09,1056.966 L436.644,1056.966 L436.644,633.247 L426.644,623.247 L111.09,623.247" style="stroke:#181818;stroke-width:0.5;" fill="#FEFFDD"/><path d="M426.644,623.247 L426.644,633.247 L436.644,633.247 L426.644,623.247" style="stroke:#181818;stroke-width:1;" fill="#FEFFDD"/><text x="117.09" y="640.314" fill="#000" font-size="13" textLength="215.935" font-weight="700">The pipeline runs end to end.</text><text x="117.09" y="655.447" fill="#000" font-size="13" textLength="275.057">Every reason in the tree reaches the user.</text><text x="117.09" y="670.579" fill="#000" font-size="13"> </text><text x="117.09" y="685.712" fill="#000" font-size="13" textLength="187.281">Both earlier gaps are closed:</text><text x="117.09" y="700.845" fill="#000" font-size="13"> </text><text x="117.09" y="715.978" fill="#000" font-size="13" textLength="264.666">1. The derives generate extraction logic.</text><text x="129.487" y="731.111" fill="#000" font-size="13" textLength="267.243">StructExtraction and FieldExtraction stay</text><text x="129.487" y="746.243" fill="#000" font-size="13" textLength="288.355">hand-written where they sit — a proc-macro</text><text x="129.487" y="761.376" fill="#000" font-size="13" textLength="273.305">crate cannot use its own derives — so the</text><text x="129.487" y="776.509" fill="#000" font-size="13" textLength="209.46">proof lives in the facade instead</text><text x="129.487" y="791.642" fill="#000" font-size="13" textLength="175.494">(#derive/cannot-self-host).</text><text x="117.09" y="806.775" fill="#000" font-size="13"> </text><text x="117.09" y="821.908" fill="#000" font-size="13" textLength="201.24">2. ID(syntax/render) descends.</text><text x="322.462" y="821.908" fill="#000" font-size="13" textLength="62.613" font-family="monospace">Diagnose</text><text x="129.487" y="837.04" fill="#000" font-size="13" textLength="244.436">says where a node's children are; the</text><text x="117.09" y="852.173" fill="#000" font-size="13" textLength="12.397">   </text><text x="129.487" y="852.173" fill="#000" font-size="13" textLength="70.44" font-family="monospace">Extracted</text><text x="204.059" y="852.173" fill="#000" font-size="13" textLength="183.498">around each one renders its</text><text x="129.487" y="867.306" fill="#000" font-size="13" textLength="260.692">reasons, because it holds the node they</text><text x="129.487" y="882.439" fill="#000" font-size="13" textLength="241.592">span against (#render/who-renders).</text><text x="117.09" y="897.572" fill="#000" font-size="13"> </text><text x="117.09" y="912.704" fill="#000" font-size="13" textLength="304.554">The 'sorted by span' clause was DROPPED, not</text><text x="117.09" y="927.837" fill="#000" font-size="13" textLength="36.823">done:</text><text x="158.045" y="927.837" fill="#000" font-size="13" textLength="86.093" font-family="monospace">Span::start</text><text x="248.271" y="927.837" fill="#000" font-size="13" textLength="131.841">is gated and returns</text><text x="117.09" y="942.97" fill="#000" font-size="13" textLength="272.054">line 0 inside a real macro, so a sort would</text><text x="117.09" y="958.103" fill="#000" font-size="13" textLength="261.879">be a no-op that looked like a guarantee.</text><text x="117.09" y="973.236" fill="#000" font-size="13" textLength="275.742">Depth-first over a source-ordered syn tree</text><text x="117.09" y="988.368" fill="#000" font-size="13" textLength="155.797">already IS source order.</text><text x="117.09" y="1003.501" fill="#000" font-size="13" textLength="229.195">(#render/traversal-is-source-order)</text><text x="117.09" y="1018.634" fill="#000" font-size="13"> </text><text x="117.09" y="1033.767" fill="#000" font-size="13" textLength="275.323">What remains: the syntax stage is still not</text><text x="117.09" y="1048.9" fill="#000" font-size="13" textLength="115.997">on the path at all.</text></g><g class="entity" data-qualified-name="GMN37" id="ent0038" data-source-line="121"><path d="M411.01,1294.857 L411.01,1486.451 A0,0 0 0 0 411.01,1486.451 L732.73,1486.451 A0,0 0 0 0 732.73,1486.451 L732.73,1304.857 L722.73,1294.857 L575.87,1294.857 L571.87,1218.307 L567.87,1294.857 L411.01,1294.857 A0,0 0 0 0 411.01,1294.857" style="stroke:#181818;stroke-width:0.5;" fill="#FEFFDD"/><path d="M722.73,1294.857 L722.73,1304.857 L732.73,1304.857 L722.73,1294.857" style="stroke:#181818;stroke-width:0.5;" fill="#FEFFDD"/><text x="417.01" y="1311.924" fill="#000" font-size="13" textLength="254.306">A node renders its OWN reasons via its</text><text x="417.01" y="1327.057" fill="#000" font-size="13" textLength="70.44" font-family="monospace">Extracted</text><text x="487.45" y="1327.057" fill="#000" font-size="13" textLength="144.409">; a VALUE implements</text><text x="635.991" y="1327.057" fill="#000" font-size="13" textLength="62.613" font-family="monospace">Diagnose</text><text x="417.01" y="1342.189" fill="#000" font-size="13" textLength="253.792">only to say where its children are. So a</text><text x="417.01" y="1357.322" fill="#000" font-size="13" textLength="270.309">grammar type never learns how a reason</text><text x="417.01" y="1372.455" fill="#000" font-size="13" textLength="300.72">becomes an error, and the node-span fallback</text><text x="417.01" y="1387.588" fill="#000" font-size="13" textLength="133.802">cannot be forgotten.</text><text x="417.01" y="1402.721" fill="#000" font-size="13"> </text><text x="417.01" y="1417.853" fill="#000" font-size="13" textLength="156.533" font-family="monospace">#[derive(Extractor)]</text><text x="577.676" y="1417.853" fill="#000" font-size="13" textLength="96.269">emits this impl</text><text x="417.01" y="1432.986" fill="#000" font-size="13" textLength="284.115">alongside — a leaf is the one case it cannot</text><text x="417.01" y="1448.119" fill="#000" font-size="13" textLength="259.391">state, and omitting it is a compile error,</text><text x="417.01" y="1463.252" fill="#000" font-size="13" textLength="121.57">never a silent gap.</text><text x="417.01" y="1478.385" fill="#000" font-size="13" textLength="202.744">(#derive/diagnose-rides-along)</text></g><g class="entity" data-qualified-name="Closed" id="ent0040" data-source-line="136"><path d="M6,171.927 L6,272.724 A0,0 0 0 0 6,272.724 L173.79,272.724 L197.34,470.287 L181.79,272.724 L339.736,272.724 A0,0 0 0 0 339.736,272.724 L339.736,181.927 L329.736,171.927 L6,171.927 A0,0 0 0 0 6,171.927" style="stroke:#181818;stroke-width:0.5;" fill="#FEFFDD"/><path d="M329.736,171.927 L329.736,181.927 L339.736,181.927 L329.736,171.927" style="stroke:#181818;stroke-width:0.5;" fill="#FEFFDD"/><text x="12" y="188.994" fill="#000" font-size="13" textLength="252.973" font-weight="700">#pipeline/relocate-traits is closed.</text><text x="12" y="204.127" fill="#000" font-size="13" textLength="268.062">Extractor, Validate and Visitable now live</text><text x="12" y="219.259" fill="#000" font-size="13" textLength="228.56">in proc_macro_flow_traits, because</text><text x="12" y="234.392" fill="#000" font-size="13" textLength="156.533" font-family="monospace">#[derive(Extractor)]</text><text x="172.666" y="234.392" fill="#000" font-size="13" textLength="152.071">on a user's type means</text><text x="12" y="249.525" fill="#000" font-size="13" textLength="246.003">they must be nameable from outside.</text><text x="12" y="264.658" fill="#000" font-size="13" textLength="54.787" font-family="monospace">Sourced</text><text x="70.919" y="264.658" fill="#000" font-size="13" textLength="209.333">was deleted rather than moved.</text></g><g class="entity" data-qualified-name="Naming" id="ent0042" data-source-line="147"><path d="M375.01,43.297 L375.01,401.352 A0,0 0 0 0 375.01,401.352 L552.85,401.352 L551.07,462.217 L560.85,401.352 L772.724,401.352 A0,0 0 0 0 772.724,401.352 L772.724,53.297 L762.724,43.297 L375.01,43.297 A0,0 0 0 0 375.01,43.297" style="stroke:#181818;stroke-width:0.5;" fill="#FEFFDD"/><path d="M762.724,43.297 L762.724,53.297 L772.724,53.297 L762.724,43.297" style="stroke:#181818;stroke-width:0.5;" fill="#FEFFDD"/><text x="381.01" y="60.364" fill="#000" font-size="13" textLength="243.001" font-weight="700">RESOLVED: one feature, not two.</text><text x="381.01" y="75.497" fill="#000" font-size="13" textLength="148.707" font-family="monospace">#extractor/pipeline</text><text x="529.717" y="75.497" fill="#000" font-size="13">,</text><text x="537.981" y="75.497" fill="#000" font-size="13" textLength="156.533" font-family="monospace">#extractor/expansion</text><text x="698.647" y="75.497" fill="#000" font-size="13" textLength="24.458">and</text><text x="381.01" y="90.629" fill="#000" font-size="13" textLength="180.013" font-family="monospace">#extractor/macro-wiring</text><text x="565.156" y="90.629" fill="#000" font-size="13" textLength="130.508">are CLOSED against</text><text x="381.01" y="105.762" fill="#000" font-size="13" textLength="242.626" font-family="monospace">Answer(#extractor/self-hosting)</text><text x="623.636" y="105.762" fill="#000" font-size="13">.</text><text x="381.01" y="120.895" fill="#000" font-size="13"> </text><text x="381.01" y="136.028" fill="#000" font-size="13" textLength="351.597">They asked for a bare ExtractorPipeline struct holding</text><text x="381.01" y="151.161" fill="#000" font-size="13" textLength="341.669">an extractor/processor/generator triple, an expand()</text><text x="381.01" y="166.293" fill="#000" font-size="13" textLength="321.521">over it, and that wired into the entry point — 'the</text><text x="381.01" y="181.426" fill="#000" font-size="13" textLength="250.434">extractor stage becomes self-hosting'.</text><text x="381.01" y="196.559" fill="#000" font-size="13"> </text><text x="381.01" y="211.692" fill="#000" font-size="13" textLength="366.304">The derive answers the same question DECLARATIVELY:</text><text x="381.01" y="226.825" fill="#000" font-size="13" textLength="70.44" font-family="monospace">#[source]</text><text x="455.582" y="226.825" fill="#000" font-size="13" textLength="136.652">names the syn node,</text><text x="596.367" y="226.825" fill="#000" font-size="13" textLength="54.787" font-family="monospace">#[from]</text><text x="655.286" y="226.825" fill="#000" font-size="13">/</text><text x="663.798" y="226.825" fill="#000" font-size="13" textLength="54.787" font-family="monospace">#[with]</text><text x="381.01" y="241.958" fill="#000" font-size="13" textLength="376.714">name where each child comes from, and the derive reads</text><text x="381.01" y="257.09" fill="#000" font-size="13" textLength="224.091">them off the extraction type itself.</text><text x="381.01" y="272.223" fill="#000" font-size="13"> </text><text x="381.01" y="287.356" fill="#000" font-size="13" textLength="343.846">No triple is held, because none is needed — the field</text><text x="381.01" y="302.489" fill="#000" font-size="13" textLength="225.253">TYPE already carries the arity, and</text><text x="610.395" y="302.489" fill="#000" font-size="13" textLength="70.44" font-family="monospace">Extracted</text><text x="684.968" y="302.489" fill="#000" font-size="13" textLength="48.833">already</text><text x="381.01" y="317.622" fill="#000" font-size="13" textLength="329.018">carries the source. A struct describing the pipeline</text><text x="381.01" y="332.754" fill="#000" font-size="13" textLength="331.843">would only restate what the extraction struct says.</text><text x="381.01" y="347.887" fill="#000" font-size="13"> </text><text x="381.01" y="363.02" fill="#000" font-size="13" textLength="233.765">So the entry point's rename stands:</text><text x="618.907" y="363.02" fill="#000" font-size="13" textLength="70.44" font-family="monospace">Extractor</text><text x="693.48" y="363.02" fill="#000" font-size="13" textLength="51.08">belongs</text><text x="381.01" y="378.153" fill="#000" font-size="13" textLength="329.52">to the derive that earned it, and this one is named</text><text x="381.01" y="393.286" fill="#000" font-size="13" textLength="124.3">after what it emits.</text></g><!--link Entry to S--><g class="link" data-entity-1="ent0001" data-entity-2="ent0002" id="lnk12" data-source-line="23" data-link-type="dependency"><path d="M283.31,523.557 C337.31,543.667 406.19,576.157 453.87,623.247 C510.28,678.957 541.796,764.876 555.256,808.836" style="stroke:#181818;stroke-width:1;" fill="none" id="Entry-to-S"/><polygon points="556.72,813.617,557.91,803.84,555.256,808.836,550.26,806.182,556.72,813.617" fill="#181818" style="stroke:#181818;stroke-width:1;stroke-linejoin:miter;stroke-miterlimit:10;"/><text x="413.5" y="581.814" fill="#000" font-size="13" textLength="83.383">extract_from</text></g><!--link S to F--><g class="link" data-entity-1="ent0002" data-entity-2="ent0003" id="lnk13" data-source-line="24" data-link-type="dependency"><path d="M557.72,866.747 C545.62,911.777 514.45,1005.167 453.87,1056.967 C421.18,1084.917 398.79,1064.907 361.87,1086.967 C330.76,1105.557 304.855,1131.666 286.135,1153.036" style="stroke:#181818;stroke-width:1;" fill="none" id="S-to-F"/><polygon points="282.84,1156.797,291.779,1152.663,286.135,1153.036,285.762,1147.391,282.84,1156.797" fill="#181818" style="stroke:#181818;stroke-width:1;stroke-linejoin:miter;stroke-miterlimit:10;"/><text x="362.87" y="1107.534" fill="#000" font-size="13" textLength="198.904">extract_each(data.fields.iter())</text></g><!--link S to R--><g class="link" data-entity-1="ent0002" data-entity-2="ent0008" id="lnk14" data-source-line="26" data-link-type="dependency"><path d="M564.47,866.757 C565.89,927.527 569.353,1075.278 570.953,1143.538" style="stroke:#181818;stroke-width:1;" fill="none" id="S-to-R"/><polygon points="571.07,1148.537,574.858,1139.446,570.953,1143.538,566.86,1139.633,571.07,1148.537" fill="#181818" style="stroke:#181818;stroke-width:1;stroke-linejoin:miter;stroke-miterlimit:10;"/><text x="571.34" y="1107.534" fill="#000" font-size="13" textLength="162.855">Extracted&lt;..>, borrowed</text></g><!--link R to G--><g class="link" data-entity-1="ent0008" data-entity-2="ent0007" id="lnk15" data-source-line="27" data-link-type="dependency"><path d="M626.42,1218.217 C661.66,1240.057 708.49,1269.117 749.87,1294.857 C782.35,1315.067 814.468,1335.09 843.478,1353.19" style="stroke:#181818;stroke-width:1;" fill="none" id="R-to-G"/><polygon points="847.72,1355.837,842.202,1347.679,843.478,1353.19,837.967,1354.466,847.72,1355.837" fill="#181818" style="stroke:#181818;stroke-width:1;stroke-linejoin:miter;stroke-miterlimit:10;"/><text x="702" y="1260.924" fill="#000" font-size="13" textLength="109.491">Vec&lt;syn::Error></text></g><!--link S to P--><g class="link" data-entity-1="ent0002" data-entity-2="ent0006" id="lnk16" data-source-line="28" data-link-type="dependency"><path d="M569.04,866.687 C579.57,912.037 607.85,1006.497 668.87,1056.967 C694.55,1078.207 863.991,1120.65 991.441,1150.42" style="stroke:#181818;stroke-width:1;" fill="none" id="S-to-P"/><polygon points="996.31,1151.557,988.456,1145.615,991.441,1150.42,986.636,1153.405,996.31,1151.557" fill="#181818" style="stroke:#181818;stroke-width:1;stroke-linejoin:miter;stroke-miterlimit:10;"/><text x="850.97" y="1107.534" fill="#000" font-size="13" textLength="139.56">Extracted&lt;..>, whole</text></g><!--link P to G--><g class="link" data-entity-1="ent0006" data-entity-2="ent0007" id="lnk17" data-source-line="29" data-link-type="dependency"><path d="M1087.52,1218.177 C1075.41,1227.547 1062.48,1237.887 1050.87,1247.857 C1009.69,1283.217 968.429,1323.055 938.819,1352.445" style="stroke:#181818;stroke-width:1;" fill="none" id="P-to-G"/><polygon points="935.27,1355.967,944.476,1352.466,938.819,1352.445,938.84,1346.788,935.27,1355.967" fill="#181818" style="stroke:#181818;stroke-width:1;stroke-linejoin:miter;stroke-miterlimit:10;"/><text x="1051.87" y="1260.924" fill="#000" font-size="13" textLength="105.257">ProcessedStruct</text></g><!--link V to P--><g class="link" data-entity-1="ent0005" data-entity-2="ent0006" id="lnk18" data-source-line="31" data-link-type="dependency"><path d="M1350.35,883.137 C1323.93,940.277 1271.51,1043.917 1207.87,1118.967 C1198.93,1129.497 1191.94,1136.477 1181.37,1145.517" style="stroke:#181818;stroke-width:1;stroke-dasharray:7,7;" fill="none" id="V-to-P"/><polygon points="1177.57,1148.767,1187.01,1145.957,1181.37,1145.517,1181.81,1139.877,1177.57,1148.767" fill="#181818" style="stroke:#181818;stroke-width:1;stroke-linejoin:miter;stroke-miterlimit:10;"/><text x="1251.088" y="1100.034" fill="#000" font-size="13" textLength="102.965">the primitives it</text><text x="1230.55" y="1115.167" fill="#000" font-size="13" textLength="144.041">will be written against</text></g><!--link Y to V--><g class="link" data-entity-1="ent0004" data-entity-2="ent0005" id="lnk19" data-source-line="32" data-link-type="dependency"><path d="M1215.35,523.457 C1243.77,581.897 1311.383,720.921 1346.223,792.541" style="stroke:#181818;stroke-width:1;stroke-dasharray:7,7;" fill="none" id="Y-to-V"/><polygon points="1348.41,797.037,1348.07,787.194,1346.223,792.541,1340.876,790.693,1348.41,797.037" fill="#181818" style="stroke:#181818;stroke-width:1;stroke-linejoin:miter;stroke-miterlimit:10;"/><text x="1248.39" y="581.814" fill="#000" font-size="13" textLength="179.277">SyntaxHelper (vocabulary!)</text></g><!--link DE to S--><g class="link" data-entity-1="ent0009" data-entity-2="ent0002" id="lnk20" data-source-line="34" data-link-type="dependency"><path d="M549.45,531.457 C552.64,599.577 559.565,747.432 562.425,808.342" style="stroke:#181818;stroke-width:1;stroke-dasharray:7,7;" fill="none" id="DE-to-S"/><polygon points="562.66,813.337,566.233,804.159,562.425,808.342,558.242,804.534,562.66,813.337" fill="#181818" style="stroke:#181818;stroke-width:1;stroke-linejoin:miter;stroke-miterlimit:10;"/><text x="553.16" y="574.314" fill="#000" font-size="13" textLength="120.364">generates (proved</text><text x="568.128" y="589.447" fill="#000" font-size="13" textLength="90.429">in the facade)</text></g><!--link DP to P--><g class="link" data-entity-1="ent0010" data-entity-2="ent0006" id="lnk21" data-source-line="35" data-link-type="dependency"><path d="M1132.87,866.757 C1132.87,927.527 1132.87,1075.277 1132.87,1143.537" style="stroke:#181818;stroke-width:1;stroke-dasharray:7,7;" fill="none" id="DP-to-P"/><polygon points="1132.87,1148.537,1136.87,1139.537,1132.87,1143.537,1128.87,1139.537,1132.87,1148.537" fill="#181818" style="stroke:#181818;stroke-width:1;stroke-linejoin:miter;stroke-miterlimit:10;"/><text x="1133.87" y="1107.534" fill="#000" font-size="13" textLength="65.667">generates</text></g><!--link DV to S--><g class="link" data-entity-1="ent0011" data-entity-2="ent0002" id="lnk22" data-source-line="36" data-link-type="dependency"><path d="M758.79,523.577 C732.91,547.567 695.2,585.247 668.87,623.247 C624.84,686.787 591.287,766.921 575.157,808.801" style="stroke:#181818;stroke-width:1;stroke-dasharray:7,7;" fill="none" id="DV-to-S"/><polygon points="573.36,813.467,580.327,806.506,575.157,808.801,572.862,803.631,573.36,813.467" fill="#181818" style="stroke:#181818;stroke-width:1;stroke-linejoin:miter;stroke-miterlimit:10;"/><text x="721.23" y="581.814" fill="#000" font-size="13" textLength="65.667">generates</text></g><!--link Y to GMN26--><g class="link" data-entity-1="ent0004" data-entity-2="ent0027" id="lnk28" data-source-line="54" data-link-type="association"><path d="M1158.39,523.507 C1119.87,546.887 1063.74,583.697 1020.87,623.247 C962.23,677.347 906.06,751.377 873.55,797.177" style="stroke:#181818;stroke-width:1;stroke-dasharray:7,7;" fill="none" id="Y-GMN26"/></g><!--link Gap to R--><g class="link" data-entity-1="ent0035" data-entity-2="ent0008" id="lnk36" data-source-line="118" data-link-type="association"><path d="M263.48,1057.457 C270.12,1079.967 280.46,1101.107 295.87,1118.967 C321.56,1148.747 422.95,1166.087 495.38,1174.897" style="stroke:#181818;stroke-width:1;stroke-dasharray:7,7;" fill="none" id="Gap-R"/></g><g class="legend" data-source-line="82"><rect x="1277.552" y="1669.244" width="192.684" height="46.594" fill="none" style="stroke:#000;stroke-width:1;" rx="7.5" ry="7.5"/><rect x="1282.552" y="1676.244" width="4.45" height="16.297" fill="#E8F4EA" style="stroke:none;"/><text x="1282.552" y="1689.239" fill="#000" font-size="14"> </text><text x="1291.452" y="1689.239" fill="#000" font-size="14" textLength="104.303">live and tested</text><rect x="1282.552" y="1692.541" width="4.45" height="16.297" fill="#FFF4E5" style="stroke:none;"/><text x="1282.552" y="1705.536" fill="#000" font-size="14"> </text><text x="1291.452" y="1705.536" fill="#000" font-size="14" textLength="169.333">works, tested, not wired</text><line x1="1282.552" y1="1676.244" x2="1465.236" y2="1676.244" style="stroke:#000;stroke-width:1;"/><line x1="1282.552" y1="1692.541" x2="1465.236" y2="1692.541" style="stroke:#000;stroke-width:1;"/><line x1="1282.552" y1="1708.838" x2="1465.236" y2="1708.838" style="stroke:#000;stroke-width:1;"/><line x1="1282.552" y1="1676.244" x2="1282.552" y2="1708.838" style="stroke:#000;stroke-width:1;"/><line x1="1287.002" y1="1676.244" x2="1287.002" y2="1708.838" style="stroke:#000;stroke-width:1;"/><line x1="1465.236" y1="1676.244" x2="1465.236" y2="1708.838" style="stroke:#000;stroke-width:1;"/></g><?plantuml-src XLZHRYEv4NpNLz0o44iwIKw22n3e5WluLlAk0SDM9AyMnlbWK3EKXjWPKaTIrWhP0Fc8V66-9DLDZZoMVHU_s9vfDjdLrTND2JgKIdmfP13Q2vc5hIpBlTXff_A-a2ONkq8v9KAXn5fkODHg-Q_QRAIJbV25pErEcxLOoTAhnfjIhPN9VvRPrxMpMvD_iALrulIIVrejfx8WpHfRjqkz73e_6gsqAlD78olb7qoxVVhBnjdiiPAPiu-vSlf9TIx9v8Oikh-sssqXlPYOuFRYTFBtonyd5o_ypeFRPc7oBJX4fQrvCE_-T2Pz46DsTcKss_2UVSmFwnlBUQytLlFpkExohNNplGdo6rjTXE3qSXlK6suExwAhUuRcnydVNeJmP3Ev57whWtemgrAkJmJXy_Waowqw0SPoTV9WAXNaOwbzE15FqcbfWiTJ1X9FoCMsb6v_8duGErb-vVqMR-ut1UBAU-iUp35wOl1UfDSgZoyVp156ueKHl-JDfc_Xz54PvMIWlOxyaXTTRKhnJt5vDRaUpyM_7emFssMdAsQJVto-cat6Y4LLEk09MFAaSnLt-lWc4yPQhetrQZHouAHodUw38II4VLAEcHsS0i8BbRtpUpCQJPopBYPczgP7ecVYP0hVEg9a9AwtMvUfNyNfBojdA_gzqw7Wrp-8-Z3iVJnv2vg6zqD6edS4Qe8E-xXu-dyMBsIfSnbKNBkHtWz2WMfS5t7zuZcsM4O383yN8w5YJ8zq_DQS7rys7YkP5HqubaEkMJy4Fm5gjvLiPx1DiAZytN3ulY-M5f3kLDwQiSL7M1oXdTPENw_T5RPKhUbXuH5TMgs5W1slf5nkd0Op4ByN6XpTwR8KIoLsJeUWZ91hgS6crZqlMc1HhDXFgjo03Pr6mI0W98ZC29Hr92pSTeXpAaSw3E-uafdCLRU5XDG7EHYtnelN7bejOuC2A27OIjYLk6m9qUlTs5qKtbwlBr1EOMT51l4CleuiaG7MHXAW5A88zgZeecv7hiEKgCw6AoYmKz9RuuVYAk055BzQ8cgIUB8iD2Xa5DYgs1GEa7L8Yyg7BHXymefUprWH4my5MeLUZvnvaM5nZat5BZfhjod3pxcySz9u7A6If1NFgj4dVDwtstsieNC7waLXlr7Ka79LAYmM__ttVoW2Eh5HLBMICB2vwjFZ0eTXXEGs5DQTUHHqSpFOgcyR1uHuFuIP5UITQeLBjDtcy6Pg1RPWk-MUtSKw4frJ3lUyZh0xR05RGJbybSbxkFbY7G2dMB07qXsebKBhHKxkZBYzkRx75h1SIg_EFVFlV8TLWDbv3ZP6cSx1JH3c6ncAeRYZ9pRV8bKPMA0LxKK1bZhJWP4_FVa5RTpkEZbo-9W19z80uUMUUhMtGrXrJjF6Y60GJzRz_RYcpD0lnCvXhoS-M9CvP8Q5sZEpO5imq7LYVRyEc30MiSypplD2kWrm0S0LxB20smUssHKnuYYXC7MGFC_5WAUtd--cd-z6ugZl8D_S4M5U0t9pU_VfwkPZ7uu48RaF1KN-iavW_zLG4MKMlJAUijtMD1WCum4wNJ13V3Ox9pUKBXLs2l7u8DVA9xRIT8Gy0o_U8d2YuZv3W7mesdEZL4uAh0RH-H-W_V4bsXT8hzbM41eDi9yHhay0QswOECRyxkhwcdjZNJOUWm3atjjCIte6iQuy5TiJPCk4eRYnWGbKRS8UeQ7igr6imftTeh0mPZpH5eoZs7fa1puW3nlh0eNSXY0SRS0ALU6VsC7Rd46xeTWeaTYZ58fqFp9nNGy3vzJd1zeFY9HyeYPASQW49zO5yVpxkzI_tdy7kr2e30VNc_WUtySX1--fka38kXhXBqej3E4oEavfe3c2qzthKQbjz4QLsk3GMmFmQGjBlv0Os4mObAYg8lK3cYReKLQ09FG0c3ac_iyWYL3IbHh5ZN4Q709xiXBpG3uYWx_4yex2umyTevdpqgvrHh3XvzMKHWWSJsLWwpwQ5tWzg1lXOQxVKpwPAfA9EwZb1ZyPxmwU462KUWsbjpjpE24pp2OI2cO-Sbp6zjjiZuAwBjGecdLEeuFpw7hWLRaQ5DQ7BkFqLxIKSIVfKsnaNMpfC_o9gceVHhfsE_g3ilaKaUI-SDPeIC3uf-SJjjk7daHN2BwT24eMEAfIrwHswQDvQfWGS9N9Y830G9B7pD9MZ64wnaOU9Wp469sTOu0P9BynF4hn6IGXn5P3gyx00dPFBMuykvrE9sEcASnp76o4SyzXDneXdIxWv2ZsDTTRRFPXwmmTcQdwPq8RoWamkDGueoo6Kj2-iR9PqHYl0KgJAxwq5aq8JhxIY_KMTpaJb2AwZTKc58ELTWYD1sUPL7fW7KB3AkIBkK-DlAJfOI-kvib8i56izWGBaW0tNfPKxqrNNSA8hwHELOHb77yY7QBuKlG-q6WN8KeDWXgam3eqlsQFHZbZo12pLpexmzABcCH6uiNjbviwx-99oqI65yJv2U4lBgu_JrXvLOMvt1_pqXhSf24M86VYfWulQJaKSykZp1ftvagwEFV4tW_PHKR1jLtCekSv1YpaPaM2JVhPhti0Hp5W0k8kNYvny-P-o9MBDAD5hoqLFZFmzoumt3c8si2N0kDKMhDcCaM9e5id3pROaoecax4eubPOW0G55SzbgGzHYz3nym9rsWtDcF7ir2LKeXAUca2Q63cIv25FU0vu3XZmMLxrJLJC1vPGrkpJMh0X72M6-Q06292YmWcYr2RfhWFlY_gcn8TUQEYXND8a3En9ogY_6j7u7h72RFKOlHw4uOzG9MNcBa2ZAQMuKfAhbUMtsdfE4NLCtfSd4RiDXFgG_SwvF4YmI1_ggHZYNF0D5aclw4hI97s4X7ZFbxjdh6vaXPGmLhF9_FPwCHcFE9Ch9Q4YAdP7N3uYJ0XArS6SrzXYN7_v0kCd8aAx8Kqr-V4wXcs0ZekTMNML-71zEyT5lhwFqO8But5vw3JM7Ve2rdNJb7v7c4bFEaLpfyGK3NS7mATrl_RnQmA9TOoNf-H398Uvx31yGBmqQhcVncc4qUbI6HD3TUW_tqxYvA1DuCQ7OO0kpnkB1rmZPx7N7FPAabMNRZEciqC_I7SDoH34wkB9xRSjHXPgu-F9X-kBsSNTrM9oVJzAR4kV6W0fV--fTJ9TZHht6t7E_wKF4MayIwh4pOzbgJ49FmjBEXa9Ug8iQMSSv1fpIRoo1OgEWxgn2K-gkuAlfNKBDSGscfan4QSfbGU5D9JVtKydXmvIJ_HylSFeiey7E-hYqRXn0NY-H0oXy8aAD44ulUGnlJ7PqSsN9rqMR5mJIS203Tr3NyQO_D2q4IyohmY00eUs4xRmWc5bz7nIwt3IfM8v9Hnj4rtc5Ia-3z0r-DgB6YgQfed3gm0syjcWgQpMpQAFjKr5Fvwq_WS0?></g></svg>