<svg xmlns="http://www.w3.org/2000/svg" xmlns:xlink="http://www.w3.org/1999/xlink" version="1.1" data-diagram-type="CLASS" style="width:2692px;height:1487px;background:#FFFFFF;" width="2692px" height="1487px" viewBox="0 0 2692 1487" zoomAndPan="magnify" preserveAspectRatio="none" contentStyleType="text/css"><?plantuml 1.2026.8?><defs/><g font-family="sans-serif" lengthAdjust="spacing"><g class="title" data-source-line="1"><text x="1084.09" y="22.995" fill="#000" font-size="14" textLength="517.05" font-weight="700">The vocabulary suite â declared names, generated conversions</text></g><!--cluster proc_macro_flow_traits::vocab--><g class="cluster" data-qualified-name="proc_macro_flow_traits..vocab" id="ent0002" data-source-line="23"><rect x="24.47" y="402.957" width="2277" height="846.22" fill="none" style="stroke:#181818;stroke-width:1;" rx="2.5" ry="2.5"/><path d="M273.188,402.957 L273.188,412.254 L263.188,422.254 L24.47,422.254" style="stroke:#181818;stroke-width:1;" fill="none"/><text x="27.47" y="416.952" fill="#000" font-size="14" textLength="238.718" font-weight="700">proc_macro_flow_traits::vocab</text></g><!--cluster names--><g class="cluster" data-qualified-name="proc_macro_flow_traits..vocab.names" id="ent0005" data-source-line="26"><path d="M50.97,462.257 L103.8,462.257 A3.75,3.75 0 0 1 106.3,464.757 L113.3,484.554 L327.97,484.554 A2.5,2.5 0 0 1 330.47,487.054 L330.47,959.087 A2.5,2.5 0 0 1 327.97,961.587 L50.97,961.587 A2.5,2.5 0 0 1 48.47,959.087 L48.47,464.757 A2.5,2.5 0 0 1 50.97,462.257" style="stroke:#000;stroke-width:1.5;" fill="none"/><line x1="48.47" y1="484.554" x2="113.3" y2="484.554" style="stroke:#000;stroke-width:1.5;"/><text x="52.47" y="477.252" fill="#000" font-size="14" textLength="51.83" font-weight="700">names</text></g><!--cluster rs--><g class="cluster" data-qualified-name="proc_macro_flow_traits..vocab.names.rs" id="ent0003" data-source-line="25"><rect x="72.47" y="505.257" width="234" height="432.33" fill="none" style="stroke:#181818;stroke-width:1;" rx="2.5" ry="2.5"/><text x="181.851" y="520.252" fill="#000" font-size="14" textLength="15.237" font-weight="700">rs</text></g><!--cluster flags--><g class="cluster" data-qualified-name="proc_macro_flow_traits..vocab.flags" id="ent0009" data-source-line="39"><path d="M1334.97,454.107 L1374.661,454.107 A3.75,3.75 0 0 1 1377.161,456.607 L1384.161,476.404 L1591.97,476.404 A2.5,2.5 0 0 1 1594.47,478.904 L1594.47,674.767 A2.5,2.5 0 0 1 1591.97,677.267 L1334.97,677.267 A2.5,2.5 0 0 1 1332.47,674.767 L1332.47,456.607 A2.5,2.5 0 0 1 1334.97,454.107" style="stroke:#000;stroke-width:1.5;" fill="none"/><line x1="1332.47" y1="476.404" x2="1384.161" y2="476.404" style="stroke:#000;stroke-width:1.5;"/><text x="1336.47" y="469.102" fill="#000" font-size="14" textLength="38.691" font-weight="700">flags</text></g><!--cluster rs--><g class="cluster" data-qualified-name="proc_macro_flow_traits..vocab.flags.rs" id="ent0007" data-source-line="38"><rect x="1356.47" y="497.107" width="214" height="156.16" fill="none" style="stroke:#181818;stroke-width:1;" rx="2.5" ry="2.5"/><text x="1455.851" y="512.102" fill="#000" font-size="14" textLength="15.237" font-weight="700">rs</text></g><!--cluster values--><g class="cluster" data-qualified-name="proc_macro_flow_traits..vocab.values" id="ent0012" data-source-line="47"><path d="M978.97,445.957 L1031.137,445.957 A3.75,3.75 0 0 1 1033.637,448.457 L1040.637,468.254 L1305.97,468.254 A2.5,2.5 0 0 1 1308.47,470.754 L1308.47,682.907 A2.5,2.5 0 0 1 1305.97,685.407 L978.97,685.407 A2.5,2.5 0 0 1 976.47,682.907 L976.47,448.457 A2.5,2.5 0 0 1 978.97,445.957" style="stroke:#000;stroke-width:1.5;" fill="none"/><line x1="976.47" y1="468.254" x2="1040.637" y2="468.254" style="stroke:#000;stroke-width:1.5;"/><text x="980.47" y="460.952" fill="#000" font-size="14" textLength="51.167" font-weight="700">values</text></g><!--cluster rs--><g class="cluster" data-qualified-name="proc_macro_flow_traits..vocab.values.rs" id="ent0010" data-source-line="46"><rect x="1000.47" y="488.957" width="284" height="172.45" fill="none" style="stroke:#181818;stroke-width:1;" rx="2.5" ry="2.5"/><text x="1134.851" y="503.952" fill="#000" font-size="14" textLength="15.237" font-weight="700">rs</text></g><!--cluster lists--><g class="cluster" data-qualified-name="proc_macro_flow_traits..vocab.lists" id="ent0015" data-source-line="56"><path d="M356.97,454.107 L390.926,454.107 A3.75,3.75 0 0 1 393.426,456.607 L400.426,476.404 L631.97,476.404 A2.5,2.5 0 0 1 634.47,478.904 L634.47,674.767 A2.5,2.5 0 0 1 631.97,677.267 L356.97,677.267 A2.5,2.5 0 0 1 354.47,674.767 L354.47,456.607 A2.5,2.5 0 0 1 356.97,454.107" style="stroke:#000;stroke-width:1.5;" fill="none"/><line x1="354.47" y1="476.404" x2="400.426" y2="476.404" style="stroke:#000;stroke-width:1.5;"/><text x="358.47" y="469.102" fill="#000" font-size="14" textLength="32.956" font-weight="700">lists</text></g><!--cluster rs--><g class="cluster" data-qualified-name="proc_macro_flow_traits..vocab.lists.rs" id="ent0013" data-source-line="55"><rect x="378.47" y="497.107" width="232" height="156.16" fill="none" style="stroke:#181818;stroke-width:1;" rx="2.5" ry="2.5"/><text x="486.851" y="512.102" fill="#000" font-size="14" textLength="15.237" font-weight="700">rs</text></g><!--cluster variants--><g class="cluster" data-qualified-name="proc_macro_flow_traits..vocab.variants" id="ent0018" data-source-line="64"><path d="M660.97,454.107 L726.686,454.107 A3.75,3.75 0 0 1 729.186,456.607 L736.186,476.404 L949.97,476.404 A2.5,2.5 0 0 1 952.47,478.904 L952.47,674.767 A2.5,2.5 0 0 1 949.97,677.267 L660.97,677.267 A2.5,2.5 0 0 1 658.47,674.767 L658.47,456.607 A2.5,2.5 0 0 1 660.97,454.107" style="stroke:#000;stroke-width:1.5;" fill="none"/><line x1="658.47" y1="476.404" x2="736.186" y2="476.404" style="stroke:#000;stroke-width:1.5;"/><text x="662.47" y="469.102" fill="#000" font-size="14" textLength="64.716" font-weight="700">variants</text></g><!--cluster rs--><g class="cluster" data-qualified-name="proc_macro_flow_traits..vocab.variants.rs" id="ent0016" data-source-line="63"><rect x="682.47" y="497.107" width="246" height="156.16" fill="none" style="stroke:#181818;stroke-width:1;" rx="2.5" ry="2.5"/><text x="797.851" y="512.102" fill="#000" font-size="14" textLength="15.237" font-weight="700">rs</text></g><!--cluster leaves--><g class="cluster" data-qualified-name="proc_macro_flow_traits..vocab.leaves" id="ent0021" data-source-line="72"><path d="M1620.97,462.257 L1672.665,462.257 A3.75,3.75 0 0 1 1675.165,464.757 L1682.165,484.554 L2274.97,484.554 A2.5,2.5 0 0 1 2277.47,487.054 L2277.47,930.507 A2.5,2.5 0 0 1 2274.97,933.007 L1620.97,933.007 A2.5,2.5 0 0 1 1618.47,930.507 L1618.47,464.757 A2.5,2.5 0 0 1 1620.97,462.257" style="stroke:#000;stroke-width:1.5;" fill="none"/><line x1="1618.47" y1="484.554" x2="1682.165" y2="484.554" style="stroke:#000;stroke-width:1.5;"/><text x="1622.47" y="477.252" fill="#000" font-size="14" textLength="50.695" font-weight="700">leaves</text></g><!--cluster rs--><g class="cluster" data-qualified-name="proc_macro_flow_traits..vocab.leaves.rs" id="ent0019" data-source-line="71"><rect x="1642.47" y="505.257" width="611" height="403.75" fill="none" style="stroke:#181818;stroke-width:1;" rx="2.5" ry="2.5"/><text x="1940.351" y="520.252" fill="#000" font-size="14" textLength="15.237" font-weight="700">rs</text></g><!--cluster walk--><g class="cluster" data-qualified-name="proc_macro_flow_traits..vocab.walk" id="ent0026" data-source-line="85"><path d="M467.97,734.407 L505.46,734.407 A3.75,3.75 0 0 1 507.96,736.907 L514.96,756.704 L836.97,756.704 A2.5,2.5 0 0 1 839.47,759.204 L839.47,1222.677 A2.5,2.5 0 0 1 836.97,1225.177 L467.97,1225.177 A2.5,2.5 0 0 1 465.47,1222.677 L465.47,736.907 A2.5,2.5 0 0 1 467.97,734.407" style="stroke:#000;stroke-width:1.5;" fill="none"/><line x1="465.47" y1="756.704" x2="514.96" y2="756.704" style="stroke:#000;stroke-width:1.5;"/><text x="469.47" y="749.402" fill="#000" font-size="14" textLength="36.49" font-weight="700">walk</text></g><!--cluster rs--><g class="cluster" data-qualified-name="proc_macro_flow_traits..vocab.walk.rs" id="ent0024" data-source-line="84"><rect x="489.47" y="777.407" width="326" height="423.77" fill="none" style="stroke:#181818;stroke-width:1;" rx="2.5" ry="2.5"/><text x="644.851" y="792.402" fill="#000" font-size="14" textLength="15.237" font-weight="700">rs</text></g><!--class Names--><g class="entity" data-qualified-name="proc_macro_flow_traits..vocab.names.rs.Names" id="ent0004" data-source-line="26"><rect x="88.41" y="800.127" width="202.135" height="121.453" fill="#F1F1F1" style="stroke:#181818;stroke-width:0.5;" rx="2.5" ry="2.5"/><ellipse cx="158.923" cy="820.26" rx="11" ry="11" fill="#CFE8CF" style="stroke:#181818;stroke-width:1;"/><path d="M154.641,813.869 L157.563,813.869 L159.032,819.307 L160.501,813.869 L163.438,813.869 L163.438,826.26 L161.329,826.26 L161.329,816.338 L160.016,821.76 L158.079,821.76 L156.751,816.338 L156.751,826.26 L154.641,826.26 L154.641,813.869 Z " fill="#000"/><text x="179.428" y="816.266" fill="#000" font-size="12" textLength="52.6" font-style="italic">«macro»</text><text x="179.423" y="832.091" fill="#000" font-size="14" textLength="52.609">names!</text><line x1="89.41" y1="840.392" x2="289.545" y2="840.392" style="stroke:#181818;stroke-width:0.5;"/><text x="94.41" y="857.388" fill="#000" font-size="14" textLength="190.135">From&lt;Self> for &amp;'static str</text><line x1="89.41" y1="864.689" x2="289.545" y2="864.689" style="stroke:#181818;stroke-width:0.5;"/><text x="94.41" y="881.684" fill="#000" font-size="14" textLength="171.582">enum + ALL + spelling()</text><text x="94.41" y="897.981" fill="#000" font-size="14" textLength="180.783">spellings() + candidates()</text><text x="94.41" y="914.278" fill="#000" font-size="14" textLength="177.27">from_spelling() + Display</text></g><!--class Vocab--><g class="entity" data-qualified-name="proc_macro_flow_traits..vocab.names.rs.Vocab" id="ent0006" data-source-line="32"><rect x="117.55" y="540.257" width="143.845" height="88.859" fill="#F1F1F1" style="stroke:#181818;stroke-width:0.5;" rx="2.5" ry="2.5"/><ellipse cx="145.526" cy="560.39" rx="11" ry="11" fill="#CFE8CF" style="stroke:#181818;stroke-width:1;"/><path d="M141.245,553.999 L144.167,553.999 L145.636,559.437 L147.104,553.999 L150.042,553.999 L150.042,566.39 L147.932,566.39 L147.932,556.468 L146.62,561.89 L144.682,561.89 L143.354,556.468 L143.354,566.39 L141.245,566.39 L141.245,553.999 Z " fill="#000"/><text x="177.614" y="556.396" fill="#000" font-size="12" textLength="52.6" font-style="italic">«macro»</text><text x="162.41" y="572.221" fill="#000" font-size="14" textLength="83.009">vocabulary!</text><line x1="118.55" y1="580.522" x2="260.395" y2="580.522" style="stroke:#181818;stroke-width:0.5;"/><text x="123.55" y="597.518" fill="#000" font-size="14" textLength="131.845">names! + TryFrom</text><text x="123.55" y="613.814" fill="#000" font-size="14" textLength="70.335">+TryFrom</text><line x1="118.55" y1="621.116" x2="260.395" y2="621.116" style="stroke:#181818;stroke-width:0.5;"/></g><!--class Flag--><g class="entity" data-qualified-name="proc_macro_flow_traits..vocab.flags.rs.Flag" id="ent0008" data-source-line="39"><rect x="1372.35" y="532.107" width="182.256" height="105.156" fill="#F1F1F1" style="stroke:#181818;stroke-width:0.5;" rx="2.5" ry="2.5"/><ellipse cx="1434.928" cy="552.24" rx="11" ry="11" fill="#CFE8CF" style="stroke:#181818;stroke-width:1;"/><path d="M1430.647,545.849 L1433.569,545.849 L1435.038,551.287 L1436.506,545.849 L1439.444,545.849 L1439.444,558.24 L1437.334,558.24 L1437.334,548.318 L1436.022,553.74 L1434.084,553.74 L1432.756,548.318 L1432.756,558.24 L1430.647,558.24 L1430.647,545.849 Z " fill="#000"/><text x="1453.428" y="548.246" fill="#000" font-size="12" textLength="52.6" font-style="italic">«macro»</text><text x="1463.78" y="564.071" fill="#000" font-size="14" textLength="31.896">flag!</text><line x1="1373.35" y1="572.373" x2="1553.606" y2="572.373" style="stroke:#181818;stroke-width:0.5;"/><text x="1378.35" y="589.368" fill="#000" font-size="14" textLength="106.265">ZST + TryFrom</text><text x="1378.35" y="605.664" fill="#000" font-size="14" textLength="70.335">+TryFrom</text><text x="1378.35" y="621.961" fill="#000" font-size="14" textLength="170.256">+FromMeta + ToTokens</text><line x1="1373.35" y1="629.263" x2="1553.606" y2="629.263" style="stroke:#181818;stroke-width:0.5;"/></g><!--class NameValue--><g class="entity" data-qualified-name="proc_macro_flow_traits..vocab.values.rs.NameValue" id="ent0011" data-source-line="47"><rect x="1016.46" y="523.957" width="252.03" height="121.453" fill="#F1F1F1" style="stroke:#181818;stroke-width:0.5;" rx="2.5" ry="2.5"/><ellipse cx="1092.947" cy="544.09" rx="11" ry="11" fill="#CFE8CF" style="stroke:#181818;stroke-width:1;"/><path d="M1088.666,537.699 L1091.588,537.699 L1093.057,543.137 L1094.525,537.699 L1097.463,537.699 L1097.463,550.09 L1095.354,550.09 L1095.354,540.168 L1094.041,545.59 L1092.104,545.59 L1090.775,540.168 L1090.775,550.09 L1088.666,550.09 L1088.666,537.699 Z " fill="#000"/><text x="1132.425" y="540.096" fill="#000" font-size="12" textLength="52.6" font-style="italic">«macro»</text><text x="1113.447" y="555.921" fill="#000" font-size="14" textLength="90.556">name_value!</text><line x1="1017.46" y1="564.223" x2="1267.49" y2="564.223" style="stroke:#181818;stroke-width:0.5;"/><text x="1022.46" y="581.218" fill="#000" font-size="14" textLength="240.03">newtype + FromExpr + FromMeta</text><text x="1022.46" y="597.514" fill="#000" font-size="14" textLength="70.335">+TryFrom</text><text x="1022.46" y="613.811" fill="#000" font-size="14" textLength="70.335">+TryFrom</text><text x="1022.46" y="630.108" fill="#000" font-size="14" textLength="138.175">+Deref + ToTokens</text><line x1="1017.46" y1="637.41" x2="1267.49" y2="637.41" style="stroke:#181818;stroke-width:0.5;"/></g><!--class MetaList--><g class="entity" data-qualified-name="proc_macro_flow_traits..vocab.lists.rs.MetaList" id="ent0014" data-source-line="56"><rect x="394.42" y="532.107" width="200.098" height="105.156" fill="#F1F1F1" style="stroke:#181818;stroke-width:0.5;" rx="2.5" ry="2.5"/><ellipse cx="455.472" cy="552.24" rx="11" ry="11" fill="#CFE8CF" style="stroke:#181818;stroke-width:1;"/><path d="M451.191,545.849 L454.112,545.849 L455.581,551.287 L457.05,545.849 L459.987,545.849 L459.987,558.24 L457.878,558.24 L457.878,548.318 L456.566,553.74 L454.628,553.74 L453.3,548.318 L453.3,558.24 L451.191,558.24 L451.191,545.849 Z " fill="#000"/><text x="484.419" y="548.246" fill="#000" font-size="12" textLength="52.6" font-style="italic">«macro»</text><text x="475.972" y="564.071" fill="#000" font-size="14" textLength="69.494">meta_list!</text><line x1="395.42" y1="572.373" x2="593.518" y2="572.373" style="stroke:#181818;stroke-width:0.5;"/><text x="400.42" y="589.368" fill="#000" font-size="14" textLength="188.098">struct + KEYS + FromMeta</text><text x="400.42" y="605.664" fill="#000" font-size="14" textLength="70.335">+TryFrom</text><text x="400.42" y="621.961" fill="#000" font-size="14" textLength="153.61">+TryFrom&lt;ListBody></text><line x1="395.42" y1="629.263" x2="593.518" y2="629.263" style="stroke:#181818;stroke-width:0.5;"/></g><!--class Variants--><g class="entity" data-qualified-name="proc_macro_flow_traits..vocab.variants.rs.Variants" id="ent0017" data-source-line="64"><rect x="698.53" y="532.107" width="213.893" height="105.156" fill="#F1F1F1" style="stroke:#181818;stroke-width:0.5;" rx="2.5" ry="2.5"/><ellipse cx="770.048" cy="552.24" rx="11" ry="11" fill="#CFE8CF" style="stroke:#181818;stroke-width:1;"/><path d="M765.766,545.849 L768.688,545.849 L770.157,551.287 L771.626,545.849 L774.563,545.849 L774.563,558.24 L772.454,558.24 L772.454,548.318 L771.141,553.74 L769.204,553.74 L767.876,548.318 L767.876,558.24 L765.766,558.24 L765.766,545.849 Z " fill="#000"/><text x="795.426" y="548.246" fill="#000" font-size="12" textLength="52.6" font-style="italic">«macro»</text><text x="790.548" y="564.071" fill="#000" font-size="14" textLength="62.357">variants!</text><line x1="699.53" y1="572.373" x2="911.423" y2="572.373" style="stroke:#181818;stroke-width:0.5;"/><text x="704.53" y="589.368" fill="#000" font-size="14" textLength="201.893">enum + NAMES + FromMeta</text><text x="704.53" y="605.664" fill="#000" font-size="14" textLength="79.516">+FromExpr</text><text x="704.53" y="621.961" fill="#000" font-size="14" textLength="70.335">+TryFrom</text><line x1="699.53" y1="629.263" x2="911.423" y2="629.263" style="stroke:#181818;stroke-width:0.5;"/></g><!--class FromExpr--><g class="entity" data-qualified-name="proc_macro_flow_traits..vocab.leaves.rs.FromExpr" id="ent0020" data-source-line="72"><rect x="1969.41" y="828.707" width="268.122" height="64.297" fill="#F1F1F1" style="stroke:#181818;stroke-width:0.5;" rx="2.5" ry="2.5"/><ellipse cx="2065.328" cy="844.707" rx="11" ry="11" fill="#B4A7E5" style="stroke:#181818;stroke-width:1;"/><path d="M2061.25,840.473 L2061.25,838.316 L2068.641,838.316 L2068.641,840.473 L2066.172,840.473 L2066.172,848.551 L2068.641,848.551 L2068.641,850.707 L2061.25,850.707 L2061.25,848.551 L2063.719,848.551 L2063.719,840.473 L2061.25,840.473 Z " fill="#000"/><text x="2085.828" y="849.554" fill="#000" font-size="14" textLength="67.785" font-style="italic">FromExpr</text><line x1="1970.41" y1="860.707" x2="2236.532" y2="860.707" style="stroke:#181818;stroke-width:0.5;"/><line x1="1970.41" y1="868.707" x2="2236.532" y2="868.707" style="stroke:#181818;stroke-width:0.5;"/><text x="1975.41" y="885.702" fill="#000" font-size="14" textLength="256.122">+from_expr(&amp;Expr) -> Result&lt;Self></text></g><!--class FromMeta--><g class="entity" data-qualified-name="proc_macro_flow_traits..vocab.leaves.rs.FromMeta" id="ent0022" data-source-line="75"><rect x="1658.53" y="828.707" width="275.888" height="64.297" fill="#F1F1F1" style="stroke:#181818;stroke-width:0.5;" rx="2.5" ry="2.5"/><ellipse cx="1756.838" cy="844.707" rx="11" ry="11" fill="#B4A7E5" style="stroke:#181818;stroke-width:1;"/><path d="M1752.759,840.473 L1752.759,838.316 L1760.15,838.316 L1760.15,840.473 L1757.681,840.473 L1757.681,848.551 L1760.15,848.551 L1760.15,850.707 L1752.759,850.707 L1752.759,848.551 L1755.228,848.551 L1755.228,840.473 L1752.759,840.473 Z " fill="#000"/><text x="1777.338" y="849.554" fill="#000" font-size="14" textLength="70.772" font-style="italic">FromMeta</text><line x1="1659.53" y1="860.707" x2="1933.418" y2="860.707" style="stroke:#181818;stroke-width:0.5;"/><line x1="1659.53" y1="868.707" x2="1933.418" y2="868.707" style="stroke:#181818;stroke-width:0.5;"/><text x="1664.53" y="885.702" fill="#000" font-size="14" textLength="263.888">+from_meta(&amp;Meta) -> Result&lt;Self></text></g><!--class Leaf--><g class="entity" data-qualified-name="proc_macro_flow_traits..vocab.leaves.rs.Leaf" id="ent0023" data-source-line="78"><rect x="1864.88" y="540.257" width="171.188" height="88.859" fill="#F1F1F1" style="stroke:#181818;stroke-width:0.5;" rx="2.5" ry="2.5"/><ellipse cx="1921.924" cy="560.39" rx="11" ry="11" fill="#CFE8CF" style="stroke:#181818;stroke-width:1;"/><path d="M1917.643,553.999 L1920.565,553.999 L1922.034,559.437 L1923.503,553.999 L1926.44,553.999 L1926.44,566.39 L1924.331,566.39 L1924.331,556.468 L1923.018,561.89 L1921.081,561.89 L1919.753,556.468 L1919.753,566.39 L1917.643,566.39 L1917.643,553.999 Z " fill="#000"/><text x="1940.424" y="556.396" fill="#000" font-size="12" textLength="52.6" font-style="italic">«macro»</text><text x="1950.913" y="572.221" fill="#000" font-size="14" textLength="31.623">leaf!</text><line x1="1865.88" y1="580.522" x2="2035.068" y2="580.522" style="stroke:#181818;stroke-width:0.5;"/><text x="1870.88" y="597.518" fill="#000" font-size="14" textLength="159.188">FromExpr + FromMeta</text><text x="1870.88" y="613.814" fill="#000" font-size="14" textLength="115.965">for the Lit family</text><line x1="1865.88" y1="621.116" x2="2035.068" y2="621.116" style="stroke:#181818;stroke-width:0.5;"/></g><!--class Errors--><g class="entity" data-qualified-name="proc_macro_flow_traits..vocab.walk.rs.Errors" id="ent0025" data-source-line="85"><rect x="505" y="1071.987" width="294.953" height="113.188" fill="#F1F1F1" style="stroke:#181818;stroke-width:0.5;" rx="2.5" ry="2.5"/><ellipse cx="627.24" cy="1087.987" rx="11" ry="11" fill="#ADD1B2" style="stroke:#181818;stroke-width:1;"/><path d="M630.209,1093.627 Q629.631,1093.924 628.99,1094.065 Q628.35,1094.221 627.646,1094.221 Q625.146,1094.221 623.818,1092.581 Q622.506,1090.924 622.506,1087.799 Q622.506,1084.674 623.818,1083.018 Q625.146,1081.362 627.646,1081.362 Q628.35,1081.362 628.99,1081.518 Q629.646,1081.674 630.209,1081.971 L630.209,1084.69 Q629.584,1084.112 628.99,1083.846 Q628.396,1083.565 627.771,1083.565 Q626.428,1083.565 625.74,1084.643 Q625.053,1085.706 625.053,1087.799 Q625.053,1089.893 625.74,1090.971 Q626.428,1092.034 627.771,1092.034 Q628.396,1092.034 628.99,1091.768 Q629.584,1091.487 630.209,1090.909 L630.209,1093.627 Z " fill="#000"/><text x="647.74" y="1092.834" fill="#000" font-size="14" textLength="41.973">Errors</text><line x1="506" y1="1103.987" x2="798.953" y2="1103.987" style="stroke:#181818;stroke-width:0.5;"/><text x="511" y="1120.982" fill="#000" font-size="14" textLength="143.801">-Option&lt;syn::Error></text><line x1="506" y1="1128.284" x2="798.953" y2="1128.284" style="stroke:#181818;stroke-width:1;"/><text x="511" y="1145.279" fill="#000" font-size="14" textLength="91.26">+push(Error)</text><text x="511" y="1161.576" fill="#000" font-size="14" textLength="282.953">+absorb&lt;T>(Result&lt;T>) -> Option&lt;T></text><text x="511" y="1177.873" fill="#000" font-size="14" textLength="164.356">+finish() -> Result&lt;()></text></g><!--class Walk--><g class="entity" data-qualified-name="proc_macro_flow_traits..vocab.walk.rs.Walk" id="ent0027" data-source-line="92"><rect x="517.26" y="812.407" width="270.426" height="96.891" fill="#F1F1F1" style="stroke:#181818;stroke-width:0.5;" rx="2.5" ry="2.5"/><ellipse cx="571.79" cy="828.407" rx="11" ry="11" fill="#FC8" style="stroke:#181818;stroke-width:1;"/><path d="M576.025,824.172 L570.743,824.172 L570.743,826.844 L575.54,826.844 L575.54,829.001 L570.743,829.001 L570.743,834.407 L568.306,834.407 L568.306,822.016 L576.025,822.016 L576.025,824.172 Z " fill="#000"/><text x="592.29" y="833.254" fill="#000" font-size="14" textLength="152.865">walk_keys / positional</text><line x1="518.26" y1="844.407" x2="786.686" y2="844.407" style="stroke:#181818;stroke-width:0.5;"/><line x1="518.26" y1="852.407" x2="786.686" y2="852.407" style="stroke:#181818;stroke-width:0.5;"/><text x="523.26" y="869.402" fill="#000" font-size="14" textLength="258.426">walk_keys(body, candidates, accept)</text><text x="523.26" y="885.699" fill="#000" font-size="14" textLength="197.661">positional(body, arity, what)</text><text x="523.26" y="901.996" fill="#000" font-size="14" textLength="146.884">last_segment(&amp;Path)</text></g><g class="entity" data-qualified-name="Problem" id="ent0001" data-source-line="7"><path d="M407.82,88.697 L407.82,310.556 L739.132,310.556 L739.132,98.697 L729.132,88.697 L407.82,88.697" style="stroke:#181818;stroke-width:0.5;" fill="#FEFFDD"/><path d="M729.132,88.697 L729.132,98.697 L739.132,98.697 L729.132,88.697" style="stroke:#181818;stroke-width:1;" fill="#FEFFDD"/><text x="413.82" y="105.764" fill="#000" font-size="13" textLength="197.837" font-weight="700">What this exists to remove</text><text x="413.82" y="120.897" fill="#000" font-size="13"> </text><text x="413.82" y="136.029" fill="#000" font-size="13" textLength="289.18">Hand-written comparisons against spellings,</text><text x="413.82" y="151.162" fill="#000" font-size="13" textLength="246.835">scattered across sites that drift apart:</text><text x="413.82" y="166.295" fill="#000" font-size="13" textLength="133.053" font-family="monospace">path.is_ident(..)</text><text x="551.006" y="166.295" fill="#000" font-size="13" textLength="146.199">against a literal, and a</text><text x="413.82" y="181.428" fill="#000" font-size="13" textLength="250.453" font-family="monospace">match ident.to_string().as_str()</text><text x="668.405" y="181.428" fill="#000" font-size="13" textLength="55.726">beside it</text><text x="413.82" y="196.561" fill="#000" font-size="13" textLength="276.65">listing candidates that no longer matched.</text><text x="413.82" y="211.693" fill="#000" font-size="13"> </text><text x="413.82" y="226.826" fill="#000" font-size="13" textLength="302.517">A declaration generates BOTH the comparison</text><text x="413.82" y="241.959" fill="#000" font-size="13" textLength="246.74">and the candidate list, so they cannot</text><text x="413.82" y="257.092" fill="#000" font-size="13" textLength="303.297">disagree. And the match becomes exhaustive:</text><text x="413.82" y="272.225" fill="#000" font-size="13" textLength="301.406">VERIFIED that adding a name breaks the build</text><text x="413.82" y="287.358" fill="#000" font-size="13" textLength="229.493">at every site (E0004) â where an</text><text x="647.445" y="287.358" fill="#000" font-size="13" textLength="62.613" font-family="monospace">is_ident</text><text x="413.82" y="302.49" fill="#000" font-size="13" textLength="170.231">string silently did nothing.</text></g><g class="entity" data-qualified-name="GMN40" id="ent0041" data-source-line="114"><path d="M2317.42,749.927 L2317.42,971.786 L2663.534,971.786 L2663.534,759.927 L2653.534,749.927 L2317.42,749.927" style="stroke:#181818;stroke-width:0.5;" fill="#FEFFDD"/><path d="M2653.534,749.927 L2653.534,759.927 L2663.534,759.927 L2653.534,749.927" style="stroke:#181818;stroke-width:1;" fill="#FEFFDD"/><text x="2323.42" y="766.994" fill="#000" font-size="13" textLength="168.962" font-weight="700">The uniform field read.</text><text x="2323.42" y="782.127" fill="#000" font-size="13" textLength="78.267" font-family="monospace">meta_list!</text><text x="2405.819" y="782.127" fill="#000" font-size="13" textLength="232.502">reads every field the same way â</text><text x="2323.42" y="797.259" fill="#000" font-size="13" textLength="297.413" font-family="monospace">&lt;FieldTy as FromMeta>::from_meta(meta)</text><text x="2624.965" y="797.259" fill="#000" font-size="13" textLength="23.569">â</text><text x="2323.42" y="812.392" fill="#000" font-size="13" textLength="229.95">whatever shape it is. A flag reads a</text><text x="2323.42" y="827.525" fill="#000" font-size="13" textLength="259.657">Meta::Path, a leaf the right-hand side of</text><text x="2323.42" y="842.658" fill="#000" font-size="13" font-family="monospace">=</text><text x="2331.247" y="842.658" fill="#000" font-size="13" textLength="232.991">, a nested list its own body, and the</text><text x="2323.42" y="857.791" fill="#000" font-size="13" textLength="206.159">macro neither knows nor cares.</text><text x="2323.42" y="872.923" fill="#000" font-size="13"> </text><text x="2323.42" y="888.056" fill="#000" font-size="13" textLength="210.52">There is deliberately NO blanket</text><text x="2323.42" y="903.189" fill="#000" font-size="13" textLength="250.453" font-family="monospace">impl&lt;T: FromExpr> FromMeta for T</text><text x="2573.873" y="903.189" fill="#000" font-size="13" textLength="60.042">: it would</text><text x="2323.42" y="918.322" fill="#000" font-size="13" textLength="254.001">collide with the specific impls flag! and</text><text x="2323.42" y="933.455" fill="#000" font-size="13" textLength="272.486">meta_list! generate. Each macro emits its</text><text x="2323.42" y="948.588" fill="#000" font-size="13" textLength="144.847">own one-liner instead.</text><text x="2323.42" y="963.72" fill="#000" font-size="13" textLength="185.079">(#leaves/uniform-field-read)</text></g><g class="entity" data-qualified-name="GMN43" id="ent0044" data-source-line="131"><path d="M2317.71,1032.787 L2317.71,1224.381 A0,0 0 0 0 2317.71,1224.381 L2677.231,1224.381 A0,0 0 0 0 2677.231,1224.381 L2677.231,1042.787 L2667.231,1032.787 L2360.47,1032.787 L2150.22,893.377 L2352.47,1032.787 L2317.71,1032.787 A0,0 0 0 0 2317.71,1032.787" style="stroke:#181818;stroke-width:0.5;" fill="#FEFFDD"/><path d="M2667.231,1032.787 L2667.231,1042.787 L2677.231,1042.787 L2667.231,1032.787" style="stroke:#181818;stroke-width:0.5;" fill="#FEFFDD"/><text x="2323.71" y="1049.854" fill="#000" font-size="13" textLength="128.578">A local trait and not</text><text x="2456.42" y="1049.854" fill="#000" font-size="13" textLength="54.787" font-family="monospace">TryFrom</text><text x="2511.207" y="1049.854" fill="#000" font-size="13" textLength="62.639">, because</text><text x="2323.71" y="1064.987" fill="#000" font-size="13" textLength="109.319">VERIFIED E0117:</text><text x="2323.71" y="1080.119" fill="#000" font-size="13" textLength="93.92" font-family="monospace">impl TryFrom</text><text x="2425.457" y="1080.119" fill="#000" font-size="13" textLength="117.4" font-family="monospace">for syn::LitStr</text><text x="2546.989" y="1080.119" fill="#000" font-size="13" textLength="22.483">is a</text><text x="2323.71" y="1095.252" fill="#000" font-size="13" textLength="197.063">foreign trait on a foreign type.</text><text x="2323.71" y="1110.385" fill="#000" font-size="13"> </text><text x="2323.71" y="1125.518" fill="#000" font-size="13" textLength="306.884">Newtyping the leaves to get TryFrom back was</text><text x="2323.71" y="1140.651" fill="#000" font-size="13" textLength="338.521">considered and REJECTED â an author's grammar</text><text x="2323.71" y="1155.783" fill="#000" font-size="13" textLength="222.143">names syn's terminals directly, so</text><text x="2323.71" y="1170.916" fill="#000" font-size="13" textLength="180.013" font-family="monospace">Retry { times: LitInt }</text><text x="2507.856" y="1170.916" fill="#000" font-size="13" textLength="130.863">would have become</text><text x="2323.71" y="1186.049" fill="#000" font-size="13" textLength="133.053" font-family="monospace">times: vocab::Int</text><text x="2456.763" y="1186.049" fill="#000" font-size="13" textLength="149.405">. FromExpr is what lets</text><text x="2323.71" y="1201.182" fill="#000" font-size="13" textLength="106.171">LitInt stay LitInt.</text><text x="2323.71" y="1216.315" fill="#000" font-size="13" textLength="211.663">(#vocab/orphan-shapes-the-api)</text></g><g class="entity" data-qualified-name="GMN46" id="ent0047" data-source-line="146"><path d="M492.21,1296.177 L492.21,1472.638 A0,0 0 0 0 492.21,1472.638 L812.737,1472.638 A0,0 0 0 0 812.737,1472.638 L812.737,1306.177 L802.737,1296.177 L656.47,1296.177 L652.47,1185.597 L648.47,1296.177 L492.21,1296.177 A0,0 0 0 0 492.21,1296.177" style="stroke:#181818;stroke-width:0.5;" fill="#FEFFDD"/><path d="M802.737,1296.177 L802.737,1306.177 L812.737,1306.177 L802.737,1296.177" style="stroke:#181818;stroke-width:0.5;" fill="#FEFFDD"/><text x="498.21" y="1313.244" fill="#000" font-size="13" textLength="197.869" font-weight="700">Why the walk does not use</text><text x="700.605" y="1313.244" fill="#000" font-size="13" font-weight="700" font-family="monospace">?</text><text x="498.21" y="1328.377" fill="#000" font-size="13" textLength="214.398">VERIFIED: a syn Parse impl using</text><text x="716.741" y="1328.377" fill="#000" font-size="13" font-family="monospace">?</text><text x="728.7" y="1328.377" fill="#000" font-size="13" textLength="28.99">over</text><text x="498.21" y="1343.509" fill="#000" font-size="13" textLength="290.348">three bad elements reports ONE and silently</text><text x="498.21" y="1358.642" fill="#000" font-size="13" textLength="68.523">drops two.</text><text x="570.865" y="1358.642" fill="#000" font-size="13" textLength="148.707" font-family="monospace">syn::Error::combine</text><text x="723.704" y="1358.642" fill="#000" font-size="13" textLength="74.033">keeps each</text><text x="498.21" y="1373.775" fill="#000" font-size="13" textLength="261.834">error's own span, so accumulating costs</text><text x="498.21" y="1388.908" fill="#000" font-size="13" textLength="173.361">nothing and loses nothing.</text><text x="498.21" y="1404.041" fill="#000" font-size="13"> </text><text x="498.21" y="1419.173" fill="#000" font-size="13" textLength="262.863">The only thing that aborts is a body that</text><text x="498.21" y="1434.306" fill="#000" font-size="13" textLength="243.629">will not parse as a meta list at all â</text><text x="498.21" y="1449.439" fill="#000" font-size="13" textLength="259.403">there are no siblings to lose when there</text><text x="498.21" y="1464.572" fill="#000" font-size="13" textLength="241.16">are no siblings. (#walk/accumulates)</text></g><g class="entity" data-qualified-name="Boundary" id="ent0049" data-source-line="160"><path d="M6,43.297 L6,355.953 A0,0 0 0 0 6,355.953 L185.47,355.953 L189.47,540.167 L193.47,355.953 L372.947,355.953 A0,0 0 0 0 372.947,355.953 L372.947,53.297 L362.947,43.297 L6,43.297 A0,0 0 0 0 6,43.297" style="stroke:#181818;stroke-width:0.5;" fill="#FEFFDD"/><path d="M362.947,43.297 L362.947,53.297 L372.947,53.297 L362.947,43.297" style="stroke:#181818;stroke-width:0.5;" fill="#FEFFDD"/><text x="12" y="60.364" fill="#000" font-size="13" textLength="243.401" font-weight="700">Which macro, and why it matters</text><text x="12" y="75.497" fill="#000" font-size="13"> </text><text x="12" y="90.629" fill="#000" font-size="13" textLength="86.093" font-family="monospace">vocabulary!</text><text x="102.226" y="90.629" fill="#000" font-size="13" textLength="254.401">â names WE own AND read back out</text><text x="12" y="105.762" fill="#000" font-size="13" textLength="270.023">of the user's tokens (helper heads, keys).</text><text x="12" y="120.895" fill="#000" font-size="13" textLength="164.722">Spelling IS identity there.</text><text x="12" y="136.028" fill="#000" font-size="13"> </text><text x="12" y="151.161" fill="#000" font-size="13" textLength="46.96" font-family="monospace">names!</text><text x="63.092" y="151.161" fill="#000" font-size="13" textLength="211.707">â a set that needs a canonical</text><text x="12" y="166.293" fill="#000" font-size="13" textLength="293.306">spelling for diagnostics but is never matched</text><text x="12" y="181.426" fill="#000" font-size="13" textLength="233.994">from tokens. ShapeKind is the case.</text><text x="12" y="196.559" fill="#000" font-size="13"> </text><text x="12" y="211.692" fill="#000" font-size="13" textLength="70.44" font-family="monospace">variants!</text><text x="86.572" y="211.692" fill="#000" font-size="13" textLength="255.449">â the ONE place a VALUE is matched</text><text x="12" y="226.825" fill="#000" font-size="13" textLength="308.585">by name, because the caller needs a value and</text><text x="12" y="241.958" fill="#000" font-size="13" textLength="310.178">rustc can only check one, never hand one over.</text><text x="12" y="257.09" fill="#000" font-size="13" textLength="317.015">Documented cost: a renamed import is invisible.</text><text x="12" y="272.223" fill="#000" font-size="13"> </text><text x="12" y="287.356" fill="#000" font-size="13" textLength="155.803">Never for a selector like</text><text x="12" y="302.489" fill="#000" font-size="13" textLength="258.28" font-family="monospace">#[shape(AttributeKind::MetaList)]</text><text x="274.412" y="302.489" fill="#000" font-size="13" textLength="83.535">â no value</text><text x="12" y="317.622" fill="#000" font-size="13" textLength="267.516">is needed there, so it is spliced and rustc</text><text x="12" y="332.754" fill="#000" font-size="13" textLength="231.334">resolves it, import renames and all.</text><text x="12" y="347.887" fill="#000" font-size="13" textLength="165.617">(#vocab/match-or-splice)</text></g><!--link Vocab to Names--><g class="link" data-entity-1="ent0006" data-entity-2="ent0004" id="lnk28" data-source-line="100" data-link-type="dependency"><path d="M189.47,629.427 C189.47,675.467 189.47,743.247 189.47,794.677" style="stroke:#181818;stroke-width:1;stroke-dasharray:7,7;" fill="none" id="Vocab-to-Names" codeLine="100"/><polygon points="189.47,799.677,193.47,790.677,189.47,794.677,185.47,790.677,189.47,799.677" fill="#181818" style="stroke:#181818;stroke-width:1;stroke-linejoin:miter;stroke-miterlimit:10;"/><text x="190.47" y="714.474" fill="#000" font-size="13" textLength="81.129">delegates to</text></g><!--link Flag to FromMeta--><g class="link" data-entity-1="ent0008" data-entity-2="ent0022" id="lnk29" data-source-line="101" data-link-type="dependency"><path d="M1526.5,637.577 C1594.76,693.777 1697.59,778.439 1754.25,825.089" style="stroke:#181818;stroke-width:1;stroke-dasharray:7,7;" fill="none" id="Flag-to-FromMeta" codeLine="101"/><polygon points="1758.11,828.267,1753.704,819.458,1754.25,825.089,1748.619,825.634,1758.11,828.267" fill="#181818" style="stroke:#181818;stroke-width:1;stroke-linejoin:miter;stroke-miterlimit:10;"/></g><!--link NameValue to FromExpr--><g class="link" data-entity-1="ent0011" data-entity-2="ent0020" id="lnk30" data-source-line="102" data-link-type="dependency"><path d="M1240.86,645.837 C1276.08,664.457 1316.89,682.847 1356.47,693.407 C1484.42,727.567 1828.89,676.317 1951.47,726.407 C2004.46,748.067 2048.356,792.434 2075.616,824.574" style="stroke:#181818;stroke-width:1;stroke-dasharray:7,7;" fill="none" id="NameValue-to-FromExpr" codeLine="102"/><polygon points="2078.85,828.387,2076.079,818.936,2075.616,824.574,2069.978,824.111,2078.85,828.387" fill="#181818" style="stroke:#181818;stroke-width:1;stroke-linejoin:miter;stroke-miterlimit:10;"/></g><!--link NameValue to FromMeta--><g class="link" data-entity-1="ent0011" data-entity-2="ent0022" id="lnk31" data-source-line="103" data-link-type="dependency"><path d="M1256.37,645.787 C1288.42,661.947 1323.53,678.937 1356.47,693.407 C1474.8,745.407 1610.254,795.057 1700.054,826.667" style="stroke:#181818;stroke-width:1;stroke-dasharray:7,7;" fill="none" id="NameValue-to-FromMeta" codeLine="103"/><polygon points="1704.77,828.327,1697.609,821.565,1700.054,826.667,1694.952,829.112,1704.77,828.327" fill="#181818" style="stroke:#181818;stroke-width:1;stroke-linejoin:miter;stroke-miterlimit:10;"/></g><!--link Leaf to FromExpr--><g class="link" data-entity-1="ent0023" data-entity-2="ent0020" id="lnk32" data-source-line="104" data-link-type="dependency"><path d="M1974.89,629.427 C2005.85,684.917 2056.053,774.881 2083.393,823.861" style="stroke:#181818;stroke-width:1;stroke-dasharray:7,7;" fill="none" id="Leaf-to-FromExpr" codeLine="104"/><polygon points="2085.83,828.227,2084.936,818.419,2083.393,823.861,2077.951,822.318,2085.83,828.227" fill="#181818" style="stroke:#181818;stroke-width:1;stroke-linejoin:miter;stroke-miterlimit:10;"/></g><!--link Leaf to FromMeta--><g class="link" data-entity-1="ent0023" data-entity-2="ent0022" id="lnk33" data-source-line="105" data-link-type="dependency"><path d="M1925.9,629.427 C1894.74,684.917 1844.199,774.887 1816.689,823.867" style="stroke:#181818;stroke-width:1;stroke-dasharray:7,7;" fill="none" id="Leaf-to-FromMeta" codeLine="105"/><polygon points="1814.24,828.227,1822.135,822.339,1816.689,823.867,1815.16,818.421,1814.24,828.227" fill="#181818" style="stroke:#181818;stroke-width:1;stroke-linejoin:miter;stroke-miterlimit:10;"/></g><!--link MetaList to FromMeta--><g class="link" data-entity-1="ent0014" data-entity-2="ent0022" id="lnk34" data-source-line="106" data-link-type="dependency"><path d="M566.09,637.697 C609.9,666.667 668.34,700.417 725.47,718.407 C763.78,730.477 775.57,721.927 815.47,726.407 C1116.73,760.267 1463.584,810.082 1653.284,838.252" style="stroke:#181818;stroke-width:1;stroke-dasharray:7,7;" fill="none" id="MetaList-to-FromMeta" codeLine="106"/><polygon points="1658.23,838.987,1649.915,833.708,1653.284,838.252,1648.74,841.622,1658.23,838.987" fill="#181818" style="stroke:#181818;stroke-width:1;stroke-linejoin:miter;stroke-miterlimit:10;"/></g><!--link MetaList to Walk--><g class="link" data-entity-1="ent0014" data-entity-2="ent0027" id="lnk35" data-source-line="107" data-link-type="dependency"><path d="M504.99,637.687 C511.38,662.997 520.95,693.297 534.47,718.407 C552.9,752.617 577.022,782.54 600.852,808.4" style="stroke:#181818;stroke-width:1;stroke-dasharray:7,7;" fill="none" id="MetaList-to-Walk" codeLine="107"/><polygon points="604.24,812.077,601.083,802.748,600.852,808.4,595.2,808.169,604.24,812.077" fill="#181818" style="stroke:#181818;stroke-width:1;stroke-linejoin:miter;stroke-miterlimit:10;"/><text x="535.47" y="714.474" fill="#000" font-size="13" textLength="91.895">emits a call to</text></g><!--link Variants to FromMeta--><g class="link" data-entity-1="ent0017" data-entity-2="ent0022" id="lnk36" data-source-line="108" data-link-type="dependency"><path d="M886.37,637.497 C920.49,657.427 961.31,678.877 1000.47,693.407 C1223,776.007 1491.605,821.239 1653.195,843.009" style="stroke:#181818;stroke-width:1;stroke-dasharray:7,7;" fill="none" id="Variants-to-FromMeta" codeLine="108"/><polygon points="1658.15,843.677,1649.765,838.511,1653.195,843.009,1648.697,846.439,1658.15,843.677" fill="#181818" style="stroke:#181818;stroke-width:1;stroke-linejoin:miter;stroke-miterlimit:10;"/></g><!--link Variants to FromExpr--><g class="link" data-entity-1="ent0017" data-entity-2="ent0020" id="lnk37" data-source-line="109" data-link-type="dependency"><path d="M880.75,637.537 C915.6,658.767 958.51,681.197 1000.47,693.407 C1043.55,705.957 1358.64,716.697 1403.47,718.407 C1433.9,719.577 1923.06,715.467 1951.47,726.407 C2005.05,747.037 2048.99,791.905 2076.07,824.415" style="stroke:#181818;stroke-width:1;stroke-dasharray:7,7;" fill="none" id="Variants-to-FromExpr" codeLine="109"/><polygon points="2079.27,828.257,2076.583,818.782,2076.07,824.415,2070.436,823.902,2079.27,828.257" fill="#181818" style="stroke:#181818;stroke-width:1;stroke-linejoin:miter;stroke-miterlimit:10;"/></g><!--link Variants to Walk--><g class="link" data-entity-1="ent0017" data-entity-2="ent0027" id="lnk38" data-source-line="110" data-link-type="dependency"><path d="M776.52,637.577 C748.45,687.877 708.667,759.161 681.447,807.931" style="stroke:#181818;stroke-width:1;stroke-dasharray:7,7;" fill="none" id="Variants-to-Walk" codeLine="110"/><polygon points="679.01,812.297,686.889,806.388,681.447,807.931,679.903,802.489,679.01,812.297" fill="#181818" style="stroke:#181818;stroke-width:1;stroke-linejoin:miter;stroke-miterlimit:10;"/><text x="739.13" y="714.474" fill="#000" font-size="13" textLength="91.895">emits a call to</text></g><!--reverse link Walk to Errors--><g class="link" data-entity-1="ent0027" data-entity-2="ent0025" id="lnk39" data-source-line="111" data-link-type="composition"><path d="M652.47,921.667 C652.47,967.247 652.47,1023.847 652.47,1071.877" style="stroke:#181818;stroke-width:1;" fill="none" id="Walk-backto-Errors" codeLine="111"/><polygon points="652.47,909.667,648.47,915.667,652.47,921.667,656.47,915.667,652.47,909.667" fill="#181818" style="stroke:#181818;stroke-width:1;stroke-linejoin:miter;stroke-miterlimit:10;"/></g><!--link FromMeta to GMN40--><g class="link" data-entity-1="ent0022" data-entity-2="ent0041" id="lnk42" data-source-line="114" data-link-type="association"><path d="M1821.16,828.277 C1851.33,791.427 1906.2,733.497 1968.97,709.907 C2024.52,689.037 2178.75,694.217 2235.97,709.907 C2268.55,718.847 2301.18,733.147 2331.68,749.467" style="stroke:#181818;stroke-width:1;stroke-dasharray:7,7;" fill="none" id="FromMeta-GMN40"/></g><?plantuml-src ZLZXRXkv4Vwlf-0fm4Lo9CK756YmS5KuZeppdUC4jfgWBGg1sgKaGjpbWgIiKmy1-X1zWZxAzSNwpP2xakeuEWEsTydXSEQRZyEP3JeO9QOh9HvjBkSR8zrE-8qEIlptFx_zwxT_YqBb65I5g6If_40iLQMS31Z8RVMedDUsyfsEN-kgbawMmgzaORUwMeg5D5uTp42HzvSXE3tV17M3zG_wdqgSTpgLnORIYu_EpeqgEqASdNrUoI32IdkXVj4-U16iSAgqZ-hih0E97sLL3BTEXw0gs59Y3-rXYv1BgIiVXA-LCR333o3jSmb1yaFcpdelF7o4JjgaS7eHX8I2a46qswrbM8sqd-b2LQ4t6lMxtLQh50OhdJG30GE4v0Mb3FbAiFWes9c7YzMornz9JyyzMZzN7lD21ommy8S0og515x8rfBB2s6gfd625gXYHevSf1Z80wXP_Bzv-cFw8TUh0UKYJKJpOwERT1i9R6jxHED26OA6zN3gbHk8oBObUp1NqAK9z9JUmyr4HA9yczpVNDvDtqL1P56I_P5A8kLDoxLd5VADDGLO4eK2E7SCiUfFpy_C_z1jARLS810m5S0t8tIx5Y6734eCHiuE5O9q51QhbgACgVb6TJYtpjLmgqQsTpMSbnNEsC7Ox2qxguBECgTmL5nVNO9qQZyMl16ExZ8aySfuaxbKUPBKqKKhWXqcQXBxh4Ydlw16olVU35rVNapTNrtt1kxPhX53LfXIlnENjBVusnElrqspBn5uVq_kejm8BPylPVXc4tcbV6xbByzUOltXGPZ4M2-l4zozz01joGemblXoQlZ_9qVvFz7x2_kWkzfsw7M_s_Gs5PPocqy_1z4SSaN6xzvSZW1T6Bay2J4BHlciydJ3lRm_Jhs_-nAxtAiZZAHgdKPAoKxjMI5TVj_jHcitlOyQCHVVq-4Ilfo1Msx2hLR9eyalj3emxnldG8H8SFpzDYriBdigzmqbRdFQSKiH9nqjiDIF9w3VjV8kt4sw3efiym8IV9tzzUDRZRqJmQ9OsV6kBtVZP43ejgzE-D7BfXAItttV8xoxVJvxpP1_SpYdllX859H-_mJzTuTvPo5pj2THOzeeJYC9GZmdJ5yEnk5T-Oq9C6mTPubWDdunZDHJd7XlwBJK9IDYyY23Uuka4WCyJdx8QtH-tEg1iABNPFOFHLfhrYU1EdBFEjviEFzHqSLxuNPLbFDUmQpXi_AutVjNZkIOZlv9pRztyOZhk9G2cOuOZQPkEMynqfR7w4AjU_oj8aUMpjTfvyLhK5lSYr4Z3q7t6545tFNXnVNrrzUPD_m2qTbrl3k8F3guFL21vhkhGsBpNcaH1wu1_MrpPZGni2JElbYLLDfn8-mT80-juMun6utJlPQW-Z5h68iLsE5dJR1l0VVvhXfd-JuTPcbbo97WqmZ9jPdb-b17BX2fnuQCCoQKnP5rxa8zMFXdbVOz6dz77msV3OU9KAbITNgw2i8j34f-TKH6zgJION8g5LgP0jIgB4OfLhX3toRFB4puLI56KkE-fbjhANIgJUDd5DKrFTtnFfjt6MRO_f_I7oijs3GMRD5CTNbEzARH7YIVelaqRaxsaACie_WCgQIa6P0ExDbnH4Sdbgbsm6N_gTaciKfuAVt93451sMud4j5X2GfZFF2GrNfrOLtRhKRSvGEgGs-WiJxdyGrqFOkav5xCezku-YBcHrLe5tb6NjRcOPcsuzk7aN37jTZFoRMitN6_c5gKJxDrYsmXchNAzG8b4YZnx_nrPIHQseMYBwP6OI9I-qVP80ln2bZoqbHgYBeCtr01GJ37HUn6pzUiKyY77SKW0zmzgLURBt8PWouOmwNAuHAaFcWakMXa_oCBnT5CGuAZ4KO6hm-fxSlx33t_CMeJ-hqnWQ3ZF8Oy-10TUw1XkJ2YzhD9kQ2FaVWX52SVbZWiKgi09mEWUDLrB5Pfzn1nv61pr37b55E6M2jRVJtwQN4rXOYhoKTxBJLXPzzAB9UhmKfBNN6UIYHZ5DLHg92iGGJlaShEZBeLzkrS1H-DN4JJ4CxeLRgeWli0V3hXOmRRKgB1yakFADyjkg9yOxMyRO42d0YvnJ9CsbD2xz1m3ogjVMrU3_aC-FNu898Qorjy8QSeCiMFTCNIKiKLXbUUG8eAmyC_TBcU29f8P8W0On4VfCC-nt7Z2daK5kbo2AwpGe07qGY07KyhsECArTVZ_uMuYuZ6DtH9rTCxMW7LhHz2ol-wo33ZDGM3eNIi54GMoGrxHxCjuZ7qjAsuISQLiIdGFiK6rdY5BNHXlQAoFdiM-B1veKCgGyv4zr27EsKgY7wS87gNqf95P2PQQ7PSqJmSo9XLQYFascONOAU8NhR7NSswYY9Da1FMHLHIXZlDOQ8I0KXnUj_ue_oIAsFsjtLG5MgKKGDraWPZIjeWepal9tmvy_ExGFMgmcioRcFrvmcXUthtZN1lFYzsGvpPcMD21C0zSZelUIfaQcML5YNaWw9hl4niVKYyeRXxYPmLSvD7LKRGXzQVjzc2J2kahWb95lCGgMsdacCw-0-KCKMYvh11PdNiqx7H1OCtZ_gj39pQaoSQHUA2pyBC67jgdRmk-iMDVIBUca0In4_qhYamfFbtU_cL2I_Vgvpl6gqrnIQinCA8ndrkibBBTneUS78eyWnQ2jOA2Q3XVM7ZdSqFulRE8Ec3ZprG-q6bpYhOiwAo1ccIFhXuryQL9VwI9y24i3H8I7erUnmppuk-S4Nhjvol28ykQegJ_ZmCcs6WxrZ6ogb15Z1qVCBwH4H2ZyvGwsJloKdbhAEdgC6ZCZ5Rx-At9cCDCnN0EhHj6NOViRbYDsYQs_vt_0G00?></g></svg>